# Blender v2.82 (sub 7) OBJ File: ''
# www.blender.org
o Bishop
v 0.219123 -0.000000 0.379471
v 0.061301 0.773124 0.106114
v -0.219052 -0.000000 0.379471
v -0.061229 0.773124 0.106114
v 0.219123 0.090078 0.379471
v -0.219052 0.090078 0.379471
v 0.204308 0.149978 0.353810
v -0.204236 0.149978 0.353810
v 0.179440 0.231832 0.310737
v -0.179368 0.231832 0.310737
v 0.164621 0.283491 0.285070
v -0.164549 0.283491 0.285070
v 0.125372 0.311650 0.217088
v -0.125300 0.311650 0.217088
v 0.165920 0.180315 0.287319
v -0.165848 0.180315 0.287319
v 0.109541 0.841534 0.189669
v -0.109469 0.841534 0.189669
v 0.128845 0.800114 0.223105
v 0.109359 0.773124 0.189353
v -0.128774 0.800114 0.223105
v -0.109287 0.773124 0.189353
v 0.074299 0.485132 0.128628
v -0.074227 0.485132 0.128628
v 0.011721 1.388226 0.020233
v 0.105370 1.171507 0.182439
v 0.121665 1.060030 0.210662
v 0.105370 0.948553 0.182439
v 0.060852 0.901659 0.105331
v -0.011642 1.388226 0.020233
v -0.105292 1.171507 0.182439
v -0.121587 1.060030 0.210662
v -0.105292 0.948553 0.182439
v -0.060774 0.901659 0.105331
v -0.438139 -0.000000 -0.000000
v -0.122494 0.773124 0.000000
v 0.438211 0.000000 0.000000
v 0.122565 0.773124 0.000000
v 0.219123 0.000000 -0.379471
v 0.061301 0.773124 -0.106114
v -0.219052 0.000000 -0.379471
v -0.061229 0.773124 -0.106114
v -0.438139 0.090078 0.000000
v 0.438211 0.090078 0.000000
v 0.219123 0.090078 -0.379471
v -0.219052 0.090078 -0.379471
v -0.408509 0.149978 0.000000
v 0.408580 0.149978 0.000000
v 0.204308 0.149978 -0.353810
v -0.204236 0.149978 -0.353810
v -0.358772 0.231832 0.000000
v 0.358844 0.231832 0.000000
v 0.179440 0.231832 -0.310737
v -0.179368 0.231832 -0.310737
v -0.329134 0.283491 0.000000
v 0.329206 0.283491 0.000000
v 0.164621 0.283491 -0.285070
v -0.164549 0.283491 -0.285070
v -0.250636 0.311650 0.000000
v 0.250707 0.311650 0.000000
v 0.125372 0.311650 -0.217088
v -0.125300 0.311650 -0.217088
v 0.331804 0.180315 0.000000
v 0.165920 0.180315 -0.287319
v -0.165848 0.180315 -0.287319
v -0.331732 0.180315 0.000000
v -0.218975 0.841534 0.000000
v 0.219046 0.841534 0.000000
v 0.109541 0.841534 -0.189669
v -0.109469 0.841534 -0.189669
v -0.121136 0.901742 0.000000
v -0.218610 0.773124 0.000000
v -0.257583 0.800114 0.000000
v 0.257655 0.800114 0.000000
v 0.218682 0.773124 0.000000
v 0.128845 0.800114 -0.223105
v 0.109359 0.773124 -0.189353
v -0.128774 0.800114 -0.223105
v -0.109287 0.773124 -0.189353
v -0.148491 0.485132 0.000000
v 0.148562 0.485132 0.000000
v 0.074299 0.485132 -0.128628
v -0.074227 0.485132 -0.128628
v -0.023323 1.388226 0.000000
v -0.210623 1.171507 0.000000
v -0.243212 1.060030 0.000000
v -0.210623 0.948553 0.000000
v 0.023402 1.388226 0.000000
v 0.210702 1.171507 0.000000
v 0.243291 1.060030 0.000000
v 0.210702 0.948553 0.000000
v 0.121665 0.901659 0.000000
v 0.011721 1.388226 -0.020233
v 0.105370 1.171507 -0.182439
v 0.121665 1.060030 -0.210662
v 0.105370 0.948553 -0.182439
v 0.060852 0.901659 -0.105331
v -0.011642 1.388226 -0.020233
v -0.105292 1.171507 -0.182439
v -0.121587 1.060030 -0.210662
v -0.105292 0.948553 -0.182439
v -0.060774 0.901659 -0.105331
v 0.000036 0.000000 0.000000
v -0.164585 0.851127 0.000000
v 0.164903 0.851102 0.000000
v 0.082474 0.851102 0.142772
v -0.082384 0.851102 0.142772
v 0.082474 0.851102 -0.142772
v -0.082384 0.851102 -0.142772
v -0.164400 0.889064 0.000000
v 0.165030 0.888980 0.000000
v 0.082522 0.888980 0.142909
v -0.082495 0.888980 0.142909
v 0.082522 0.888980 -0.142909
v -0.082495 0.888980 -0.142909
v 0.092375 0.875798 0.159962
v -0.092333 0.875798 0.159962
v 0.092375 0.875798 -0.159962
v -0.092333 0.875798 -0.159962
v -0.184221 0.875878 0.000000
v 0.184729 0.875798 0.000000
v -0.058117 1.472474 -0.000209
v -0.058117 1.404963 -0.000209
v 0.000350 1.371207 -0.000209
v -0.028883 1.472474 -0.050843
v -0.028883 1.404963 -0.050843
v 0.029583 1.472474 -0.050843
v 0.029583 1.404963 -0.050843
v 0.058817 1.472474 -0.000209
v 0.058817 1.404963 -0.000209
v 0.000350 1.506230 -0.000209
v 0.029583 1.472474 0.050424
v 0.029583 1.404963 0.050424
v -0.028883 1.472474 0.050424
v -0.028883 1.404963 0.050424
v 0.058546 1.279866 0.101336
v -0.058467 1.279866 0.101336
v 0.081958 1.225687 0.141887
v 0.158036 1.171507 0.091220
v -0.081879 1.225687 0.141887
v -0.157957 1.171507 0.091219
v 0.200664 1.115769 -0.045610
v -0.200585 1.115769 -0.045610
v -0.212806 1.060030 -0.052666
v 0.212885 1.060030 -0.052666
vt 0.587136 0.511680
vt 0.374706 0.483907
vt 0.477626 0.382509
vt 0.587135 0.511680
vt 0.374706 0.483907
vt 0.477626 0.382510
vt 0.477625 0.382511
vt 0.502228 0.595332
vt 0.374705 0.483908
vt 0.364294 0.066743
vt 0.023707 0.328367
vt 0.327337 0.029231
vt 0.364293 0.066743
vt 0.023707 0.328367
vt 0.327336 0.029231
vt 0.364293 0.066743
vt 0.023707 0.328367
vt 0.327337 0.029230
vt 0.380763 0.103994
vt 0.060664 0.365880
vt 0.380763 0.103994
vt 0.060664 0.365879
vt 0.380763 0.103994
vt 0.060664 0.365879
vt 0.384147 0.160637
vt 0.168099 0.419926
vt 0.154250 0.387131
vt 0.416733 0.174972
vt 0.154251 0.387130
vt 0.384147 0.160636
vt 0.416733 0.174972
vt 0.154251 0.387130
vt 0.384147 0.160636
vt 0.416732 0.174973
vt 0.202034 0.433832
vt 0.430131 0.209111
vt 0.168100 0.419926
vt 0.202035 0.433831
vt 0.168100 0.419926
vt 0.433122 0.266549
vt 0.430130 0.209112
vt 0.433122 0.266549
vt 0.202035 0.433831
vt 0.430131 0.209111
vt 0.259422 0.437679
vt 0.097666 0.382902
vt 0.097665 0.382903
vt 0.097665 0.382903
vt 0.503079 0.662802
vt 0.502229 0.595330
vt 0.507307 0.694103
vt 0.694284 0.553576
vt 0.542523 0.703091
vt 0.685822 0.518229
vt 0.542523 0.703091
vt 0.507307 0.694103
vt 0.716389 0.613446
vt 0.633347 0.727788
vt 0.602042 0.726101
vt 0.587134 0.511682
vt 0.503077 0.662805
vt 0.502230 0.595329
vt 0.654588 0.513535
vt 0.503079 0.662802
vt 0.685820 0.518232
vt 0.542521 0.703094
vt 0.507304 0.694105
vt 0.716387 0.613460
vt 0.633362 0.727802
vt 0.602040 0.726115
vt 0.602383 0.725996
vt 0.717609 0.644782
vt 0.633575 0.727753
vt 0.685821 0.518229
vt 0.259420 0.437680
vt 0.259421 0.437679
vt 0.433122 0.266548
vt 0.634864 0.064905
vt 0.544150 0.242882
vt 0.544546 0.077482
vt 0.027119 0.382648
vt 0.141827 0.491528
vt 0.027119 0.679775
vt 0.473376 0.112442
vt 0.473719 0.208145
vt 0.724922 0.160615
vt 0.634406 0.255892
vt 0.436681 0.780939
vt 0.534548 0.974094
vt 0.436680 0.960226
vt 0.344343 0.697232
vt 0.301457 0.507681
vt 0.458334 0.601044
vt 0.359874 0.922338
vt 0.359874 0.818827
vt 0.632415 0.780940
vt 0.534548 0.767072
vt 0.634406 0.255892
vt 0.544546 0.077482
vt 0.544150 0.242882
vt 0.141827 0.491528
vt 0.027119 0.382648
vt 0.027119 0.679775
vt 0.473719 0.208145
vt 0.473376 0.112442
vt 0.724922 0.160615
vt 0.634864 0.064905
vt 0.019835 0.020773
vt 0.477627 0.382509
vt 0.502231 0.595329
vt 0.374707 0.483907
vt 0.477627 0.382509
vt 0.502230 0.595329
vt 0.374706 0.483907
vt 0.374705 0.483908
vt 0.587134 0.511682
vt 0.502228 0.595331
vt 0.327337 0.029231
vt 0.060664 0.365880
vt 0.023707 0.328367
vt 0.327337 0.029230
vt 0.060664 0.365879
vt 0.023707 0.328367
vt 0.327337 0.029230
vt 0.060665 0.365879
vt 0.023708 0.328367
vt 0.364294 0.066743
vt 0.097665 0.382903
vt 0.364294 0.066742
vt 0.097666 0.382902
vt 0.364294 0.066742
vt 0.097666 0.382902
vt 0.384147 0.160636
vt 0.168099 0.419926
vt 0.154251 0.387130
vt 0.384147 0.160636
vt 0.168100 0.419926
vt 0.154251 0.387130
vt 0.384147 0.160636
vt 0.168100 0.419926
vt 0.154252 0.387130
vt 0.430130 0.209111
vt 0.202034 0.433832
vt 0.416733 0.174972
vt 0.202035 0.433831
vt 0.430131 0.209110
vt 0.202036 0.433831
vt 0.433122 0.266549
vt 0.259421 0.437679
vt 0.430131 0.209111
vt 0.259421 0.437679
vt 0.259422 0.437678
vt 0.380764 0.103993
vt 0.380763 0.103994
vt 0.654588 0.513535
vt 0.587136 0.511680
vt 0.685822 0.518229
vt 0.542523 0.703091
vt 0.507307 0.694103
vt 0.685823 0.518228
vt 0.542524 0.703091
vt 0.507308 0.694102
vt 0.717625 0.644757
vt 0.602058 0.726085
vt 0.716405 0.613430
vt 0.654587 0.513537
vt 0.654589 0.513535
vt 0.587137 0.511680
vt 0.685820 0.518231
vt 0.542521 0.703093
vt 0.507305 0.694104
vt 0.717638 0.644773
vt 0.602071 0.726084
vt 0.716418 0.613429
vt 0.716289 0.613776
vt 0.633366 0.727777
vt 0.602035 0.726108
vt 0.503080 0.662802
vt 0.503079 0.662802
vt 0.503077 0.662804
vt 0.477626 0.382511
vt 0.433122 0.266548
vt 0.433123 0.266548
vt 0.893345 0.282866
vt 0.899747 0.441479
vt 0.813659 0.457243
vt 0.726582 0.448468
vt 0.519210 0.368593
vt 0.720180 0.289855
vt 0.966344 0.405218
vt 0.962647 0.313642
vt 0.901641 0.198054
vt 0.898602 0.060927
vt 0.950713 0.095637
vt 0.838899 0.042062
vt 0.680037 0.035892
vt 0.685479 0.024534
vt 0.955886 0.197434
vt 0.984218 0.138303
vt 0.841938 0.179189
vt 0.899747 0.441479
vt 0.893345 0.282866
vt 0.813659 0.457243
vt 0.726582 0.448468
vt 0.519210 0.368593
vt 0.519920 0.386183
vt 0.966344 0.405218
vt 0.694283 0.553578
vt 0.580920 0.704547
vt 0.695153 0.591998
vt 0.694285 0.553575
vt 0.695154 0.591991
vt 0.694286 0.553575
vt 0.695164 0.591995
vt 0.581087 0.704547
vt 0.580928 0.704533
vt 0.694284 0.553575
vt 0.580922 0.704533
vt 0.714254 0.598008
vt 0.586356 0.723879
vt 0.714392 0.597736
vt 0.586400 0.723834
vt 0.714380 0.597733
vt 0.586388 0.723831
vt 0.586648 0.723726
vt 0.716407 0.613429
vt 0.586379 0.723855
vt 0.586376 0.723842
vt 0.714368 0.597744
vt 0.714371 0.597757
vt 0.580917 0.704538
vt 0.580916 0.704545
vt 0.695160 0.592162
vt 0.978107 0.694520
vt 0.902980 0.730609
vt 0.902980 0.658430
vt 0.819635 0.730609
vt 0.744509 0.694520
vt 0.819635 0.658430
vt 0.978108 0.622340
vt 0.902981 0.586251
vt 0.744509 0.622340
vt 0.819635 0.586251
vt 0.978108 0.550161
vt 0.902981 0.514071
vt 0.744509 0.550161
vt 0.819635 0.514071
vt 0.978107 0.911057
vt 0.902980 0.947147
vt 0.902981 0.874968
vt 0.819635 0.947147
vt 0.744509 0.911057
vt 0.819635 0.874968
vt 0.978107 0.838878
vt 0.902981 0.802788
vt 0.744509 0.838878
vt 0.819635 0.802788
vt 0.978107 0.766699
vt 0.744509 0.766699
vt 0.778285 0.224717
vt 0.725151 0.243099
vt 0.690010 0.940300
vt 0.632415 0.960226
vt 0.725151 0.243099
vt 0.778285 0.224717
vt 0.224484 0.964731
vt 0.049278 0.868160
vt 0.323525 0.868161
vt 0.316992 0.821281
vt 0.055812 0.821281
vt 0.324946 0.784710
vt 0.289244 0.656669
vt 0.133079 0.608384
vt 0.239724 0.608384
vt 0.764824 0.321627
vt 0.764824 0.321627
vt 0.720180 0.289855
vt 0.028065 0.750429
vt 0.344738 0.750429
vt 0.047857 0.784710
vt 0.808115 0.319880
vt 0.808115 0.319879
vt 0.654588 0.513536
vt 0.717627 0.644755
vt 0.654586 0.513538
vt 0.694282 0.553578
vt 0.717642 0.644769
vt 0.050021 0.374724
vt 0.278698 0.526886
vt 0.050022 0.374724
vt 0.380763 0.103994
vt 0.416733 0.174972
vt 0.416733 0.174971
vt 0.633346 0.727789
vt 0.633358 0.727806
vt 0.717580 0.644990
vt 0.519920 0.386183
vt 0.789827 0.144480
vt 0.962874 0.313803
vt 0.695166 0.591986
vt 0.695159 0.591985
vt 0.714412 0.597719
vt 0.690010 0.800865
vt 0.148319 0.964731
vt 0.083559 0.656669
vt 0.806267 0.274092
vt 0.806268 0.274092
vn 0.8634 0.0779 0.4985
vn 0.0000 0.0779 0.9970
vn -0.8634 0.0779 0.4985
vn -0.8660 0.0000 0.5000
vn 0.0000 0.0000 1.0000
vn 0.8660 0.0000 0.5000
vn -0.7961 0.3938 0.4596
vn -0.0000 0.3938 0.9192
vn 0.7961 0.3938 0.4596
vn -0.7884 -0.4138 0.4552
vn 0.0000 -0.4138 0.9104
vn 0.7884 -0.4138 0.4552
vn -0.7756 0.4450 0.4478
vn 0.0000 0.4450 0.8956
vn 0.7756 0.4450 0.4478
vn -0.3314 0.9239 0.1913
vn 0.0000 0.9239 0.3827
vn 0.3314 0.9239 0.1913
vn 0.3595 0.9098 0.2075
vn 0.0000 0.9098 0.4151
vn -0.3595 0.9098 0.2075
vn 0.0000 -1.0000 0.0000
vn 0.0000 0.6281 0.7781
vn 0.6739 0.6281 0.3891
vn 0.2770 0.9475 0.1599
vn -0.6739 0.6281 0.3891
vn -0.0000 0.9475 0.3197
vn -0.2776 0.9473 0.1598
vn 0.5409 -0.7810 0.3123
vn 0.0000 -0.7810 0.6245
vn -0.5409 -0.7810 0.3123
vn -0.7715 0.4543 0.4454
vn 0.0000 0.4543 0.8909
vn 0.7715 0.4543 0.4454
vn 0.8395 -0.2454 0.4847
vn 0.6933 0.5992 0.4003
vn 0.4500 -0.8544 0.2598
vn 0.8395 0.2454 0.4847
vn 0.0000 -0.2454 0.9694
vn -0.0000 0.5992 0.8006
vn 0.0000 -0.8544 0.5196
vn 0.0000 0.2454 0.9694
vn -0.8395 -0.2454 0.4847
vn -0.6933 0.5992 0.4003
vn -0.4481 -0.8565 0.2561
vn -0.8395 0.2454 0.4847
vn 0.8634 0.0779 -0.4985
vn 0.0000 0.0779 -0.9970
vn -0.8634 0.0779 -0.4985
vn -0.8660 0.0000 -0.5000
vn 0.0000 0.0000 -1.0000
vn 0.8660 0.0000 -0.5000
vn -0.7961 0.3938 -0.4596
vn -0.0000 0.3938 -0.9192
vn 0.7961 0.3938 -0.4596
vn -0.7884 -0.4138 -0.4552
vn 0.0000 -0.4138 -0.9104
vn 0.7884 -0.4138 -0.4552
vn -0.7756 0.4450 -0.4478
vn 0.0000 0.4450 -0.8956
vn 0.7756 0.4450 -0.4478
vn -0.3314 0.9239 -0.1913
vn 0.0000 0.9239 -0.3827
vn 0.3314 0.9239 -0.1913
vn 0.3595 0.9098 -0.2075
vn 0.0000 0.9098 -0.4151
vn -0.3595 0.9098 -0.2075
vn 0.0000 0.6281 -0.7781
vn 0.6739 0.6281 -0.3891
vn 0.2770 0.9475 -0.1599
vn -0.6739 0.6281 -0.3891
vn -0.0000 0.9475 -0.3197
vn -0.2772 0.9475 -0.1594
vn 0.5409 -0.7810 -0.3123
vn 0.0000 -0.7810 -0.6245
vn -0.5409 -0.7810 -0.3123
vn -0.7715 0.4543 -0.4454
vn 0.0000 0.4543 -0.8909
vn 0.7715 0.4543 -0.4454
vn 0.8395 -0.2454 -0.4847
vn 0.6933 0.5992 -0.4003
vn 0.4500 -0.8544 -0.2598
vn 0.0000 -0.2454 -0.9694
vn 0.0000 0.5992 -0.8006
vn 0.0000 -0.8544 -0.5196
vn -0.0000 0.2454 -0.9694
vn -0.8395 -0.2454 -0.4847
vn -0.6933 0.5992 -0.4003
vn -0.4500 -0.8544 -0.2598
vn -0.1731 0.9798 -0.0999
vn 0.0000 0.9798 -0.1999
vn 0.1732 0.9798 -0.1000
vn -0.1728 0.9799 0.0997
vn 0.0000 0.9798 0.1999
vn 0.1732 0.9798 0.1000
vn -0.5306 0.7908 -0.3052
vn 0.0000 0.7912 -0.6116
vn 0.5295 0.7913 -0.3057
vn -0.5278 0.7935 0.3030
vn -0.0000 0.7912 0.6116
vn 0.5295 0.7913 0.3057
vn 0.7111 -0.5708 0.4105
vn -0.0000 -0.5713 0.8207
vn -0.7141 -0.5666 0.4111
vn 0.7111 -0.5708 -0.4105
vn -0.0000 -0.5713 -0.8207
vn -0.7141 -0.5666 -0.4111
vn -0.4804 -0.8320 -0.2774
vn -0.4804 0.8320 -0.2774
vn -0.0000 -0.8321 -0.5547
vn 0.0000 0.8321 -0.5547
vn 0.4804 -0.8321 -0.2773
vn 0.4804 0.8321 -0.2773
vn 0.4804 -0.8321 0.2773
vn 0.4804 0.8320 0.2774
vn -0.0000 -0.8320 0.5547
vn 0.0000 0.8321 0.5547
vn -0.4804 -0.8320 0.2774
vn -0.4804 0.8320 0.2774
vn 0.0000 -0.6830 0.7304
vn 0.0000 -0.6333 0.7739
vn 0.0000 -0.1256 0.9921
vn 0.0000 0.6830 -0.7304
vn 0.8395 0.2454 -0.4847
vn -0.8395 0.2454 -0.4847
vn 0.0000 0.6333 -0.7739
vn 0.0000 1.0000 -0.0000
vn -0.2772 0.9475 0.1594
vn -0.4500 -0.8544 0.2598
vn -0.2776 0.9473 -0.1598
vn -0.4481 -0.8565 -0.2561
vn -0.1728 0.9799 -0.0997
vn -0.1731 0.9798 0.0999
vn -0.5278 0.7935 -0.3030
vn -0.5306 0.7908 0.3052
vn -0.7119 -0.5712 0.4086
vn -0.7119 -0.5712 -0.4086
s off
f 38/1/1 23/2/1 81/3/1
f 2/4/2 24/5/2 23/6/2
f 24/7/3 36/8/3 80/9/3
f 6/10/4 35/11/4 3/12/4
f 5/13/5 3/14/5 1/15/5
f 44/16/6 1/17/6 37/18/6
f 8/19/7 43/20/7 6/10/7
f 7/21/8 6/22/8 5/13/8
f 48/23/9 5/24/9 44/16/9
f 16/25/10 51/26/10 66/27/10
f 9/28/11 16/29/11 15/30/11
f 52/31/12 15/32/12 63/33/12
f 10/34/13 55/35/13 51/26/13
f 11/36/14 10/37/14 9/28/14
f 52/31/15 11/38/15 9/39/15
f 14/40/16 55/35/16 12/41/16
f 13/42/17 12/43/17 11/36/17
f 56/44/18 13/45/18 11/38/18
f 63/33/19 7/46/19 48/23/19
f 15/30/20 8/47/20 7/21/20
f 16/25/21 47/48/21 8/19/21
f 2/4/22 22/49/22 4/50/22
f 21/51/23 17/52/23 18/53/23
f 74/54/24 17/55/24 19/56/24
f 111/57/25 29/58/25 112/59/25
f 4/60/22 72/61/22 36/8/22
f 2/62/22 75/63/22 20/64/22
f 21/65/26 67/66/26 73/67/26
f 112/68/27 34/69/27 113/70/27
f 110/71/28 34/72/28 71/73/28
f 75/63/29 19/56/29 20/64/29
f 22/49/30 19/74/30 21/51/30
f 72/61/31 21/65/31 73/67/31
f 14/40/32 80/9/32 59/75/32
f 23/6/33 14/76/33 13/42/33
f 60/77/34 23/2/34 13/45/34
f 90/78/35 28/79/35 91/80/35
f 88/81/36 136/82/36 89/83/36
f 92/84/37 28/79/37 29/85/37
f 139/86/38 27/87/38 90/78/38
f 28/88/39 32/89/39 33/90/39
f 136/91/40 30/92/40 137/93/40
f 28/88/41 34/94/41 29/95/41
f 26/96/42 32/89/42 27/97/42
f 32/98/43 87/99/43 33/100/43
f 137/101/44 84/102/44 85/103/44
f 34/104/45 87/99/45 71/105/45
f 32/98/46 141/106/46 86/107/46
f 35/11/22 103/108/22 3/12/22
f 3/14/22 103/108/22 1/15/22
f 37/18/22 1/17/22 103/108/22
f 82/109/47 38/110/47 81/111/47
f 83/112/48 40/113/48 82/114/48
f 83/115/49 36/116/49 42/117/49
f 35/118/50 46/119/50 41/120/50
f 41/121/51 45/122/51 39/123/51
f 39/124/52 44/125/52 37/126/52
f 43/127/53 50/128/53 46/119/53
f 46/129/54 49/130/54 45/122/54
f 45/131/55 48/132/55 44/125/55
f 66/133/56 54/134/56 65/135/56
f 65/136/57 53/137/57 64/138/57
f 64/139/58 52/140/58 63/141/58
f 54/134/59 55/142/59 58/143/59
f 54/144/60 57/145/60 53/137/60
f 52/140/61 57/146/61 56/147/61
f 58/143/62 59/148/62 62/149/62
f 58/150/63 61/151/63 57/145/63
f 57/146/64 60/152/64 56/147/64
f 49/153/65 63/141/65 48/132/65
f 50/154/66 64/138/66 49/130/66
f 50/128/67 66/133/67 65/135/67
f 79/155/22 40/113/22 42/156/22
f 78/157/68 69/158/68 76/159/68
f 76/160/69 68/161/69 74/162/69
f 97/163/70 111/164/70 114/165/70
f 72/166/22 42/117/22 36/116/22
f 77/167/22 38/110/22 40/168/22
f 73/169/71 70/170/71 78/171/71
f 102/172/72 114/173/72 115/174/72
f 110/175/73 102/176/73 115/177/73
f 76/160/74 75/178/74 77/167/74
f 79/155/75 76/159/75 77/179/75
f 72/166/76 78/171/76 79/180/76
f 62/149/77 80/181/77 83/115/77
f 62/182/78 82/114/78 61/151/78
f 61/183/79 81/111/79 60/152/79
f 91/184/80 96/185/80 95/186/80
f 94/187/81 88/188/81 89/189/81
f 97/190/82 91/184/82 92/191/82
f 101/192/83 95/193/83 96/194/83
f 94/195/84 98/196/84 93/197/84
f 102/198/85 96/194/85 97/199/85
f 100/200/86 94/195/86 95/193/86
f 101/201/87 87/202/87 100/203/87
f 99/204/88 84/205/88 98/206/88
f 102/207/89 87/202/89 101/201/89
f 35/118/22 41/120/22 103/108/22
f 41/121/22 39/123/22 103/108/22
f 37/126/22 103/108/22 39/124/22
f 67/208/90 109/209/90 70/170/90
f 109/210/91 69/158/91 70/211/91
f 108/212/92 68/161/92 69/213/92
f 67/66/93 107/214/93 104/215/93
f 17/52/94 107/216/94 18/53/94
f 68/217/95 106/218/95 17/55/95
f 120/219/96 115/177/96 119/220/96
f 119/221/97 114/173/97 118/222/97
f 118/223/98 111/164/98 121/224/98
f 120/225/99 113/226/99 110/71/99
f 117/227/100 112/68/100 113/70/100
f 116/228/101 111/57/101 112/59/101
f 106/218/102 121/229/102 116/228/102
f 107/216/103 116/230/103 117/227/103
f 107/214/104 120/225/104 104/215/104
f 108/212/105 121/224/105 105/231/105
f 109/210/106 118/222/106 108/232/106
f 120/219/107 109/209/107 104/233/107
f 124/234/108 123/235/108 126/236/108
f 122/237/50 126/236/50 123/235/50
f 122/237/109 131/238/109 125/239/109
f 124/240/110 126/236/110 128/241/110
f 125/239/51 128/241/51 126/236/51
f 125/239/111 131/242/111 127/243/111
f 124/244/112 128/241/112 130/245/112
f 127/243/52 130/245/52 128/241/52
f 127/243/113 131/246/113 129/247/113
f 124/248/114 130/249/114 133/250/114
f 129/251/6 133/250/6 130/249/6
f 129/251/115 131/252/115 132/253/115
f 124/254/116 133/250/116 135/255/116
f 132/253/5 135/255/5 133/250/5
f 132/253/117 131/256/117 134/257/117
f 124/258/118 135/255/118 123/235/118
f 135/255/4 122/237/4 123/235/4
f 134/257/119 131/259/119 122/237/119
f 139/86/36 138/260/36 26/261/36
f 26/96/40 140/262/40 31/263/40
f 31/264/44 140/265/44 141/106/44
f 136/266/120 85/267/120 89/268/120
f 142/269/121 85/267/121 143/270/121
f 143/270/122 145/271/122 142/269/122
f 139/272/123 140/273/123 138/274/123
f 89/189/124 142/275/124 94/187/124
f 143/276/125 85/277/125 99/204/125
f 86/278/126 139/272/126 90/279/126
f 144/280/127 90/279/127 145/271/127
f 142/275/124 95/186/124 94/187/124
f 145/281/80 91/184/80 95/186/80
f 87/202/87 144/282/87 100/203/87
f 100/203/125 143/276/125 99/204/125
f 38/1/1 2/62/1 23/2/1
f 2/4/2 4/50/2 24/5/2
f 24/7/3 4/60/3 36/8/3
f 6/10/4 43/20/4 35/11/4
f 5/13/5 6/22/5 3/14/5
f 44/16/6 5/24/6 1/17/6
f 8/19/7 47/48/7 43/20/7
f 7/21/8 8/47/8 6/22/8
f 48/23/9 7/46/9 5/24/9
f 16/25/10 10/34/10 51/26/10
f 9/28/11 10/37/11 16/29/11
f 52/31/12 9/39/12 15/32/12
f 10/34/13 12/41/13 55/35/13
f 11/36/14 12/43/14 10/37/14
f 52/31/15 56/44/15 11/38/15
f 14/40/16 59/75/16 55/35/16
f 13/42/17 14/76/17 12/43/17
f 56/44/18 60/77/18 13/45/18
f 63/33/19 15/32/19 7/46/19
f 15/30/20 16/29/20 8/47/20
f 16/25/21 66/27/21 47/48/21
f 2/4/22 20/283/22 22/49/22
f 21/51/23 19/74/23 17/52/23
f 74/54/24 68/217/24 17/55/24
f 111/57/25 92/284/25 29/58/25
f 4/60/22 22/285/22 72/61/22
f 2/62/22 38/1/22 75/63/22
f 21/65/26 18/286/26 67/66/26
f 112/68/27 29/287/27 34/69/27
f 110/71/128 113/226/128 34/72/128
f 75/63/29 74/54/29 19/56/29
f 22/49/30 20/283/30 19/74/30
f 72/61/31 22/285/31 21/65/31
f 14/40/32 24/7/32 80/9/32
f 23/6/33 24/5/33 14/76/33
f 60/77/34 81/3/34 23/2/34
f 90/78/35 27/87/35 28/79/35
f 88/81/36 25/288/36 136/82/36
f 92/84/37 91/80/37 28/79/37
f 139/86/38 26/261/38 27/87/38
f 28/88/39 27/97/39 32/89/39
f 136/91/40 25/289/40 30/92/40
f 28/88/41 33/90/41 34/94/41
f 26/96/42 31/263/42 32/89/42
f 32/98/43 86/107/43 87/99/43
f 137/101/44 30/290/44 84/102/44
f 34/104/129 33/100/129 87/99/129
f 32/98/46 31/264/46 141/106/46
f 82/109/47 40/168/47 38/110/47
f 83/112/48 42/156/48 40/113/48
f 83/115/49 80/181/49 36/116/49
f 35/118/50 43/127/50 46/119/50
f 41/121/51 46/129/51 45/122/51
f 39/124/52 45/131/52 44/125/52
f 43/127/53 47/291/53 50/128/53
f 46/129/54 50/154/54 49/130/54
f 45/131/55 49/153/55 48/132/55
f 66/133/56 51/292/56 54/134/56
f 65/136/57 54/144/57 53/137/57
f 64/139/58 53/293/58 52/140/58
f 54/134/59 51/292/59 55/142/59
f 54/144/60 58/150/60 57/145/60
f 52/140/61 53/293/61 57/146/61
f 58/143/62 55/142/62 59/148/62
f 58/150/63 62/182/63 61/151/63
f 57/146/64 61/183/64 60/152/64
f 49/153/65 64/139/65 63/141/65
f 50/154/66 65/136/66 64/138/66
f 50/128/67 47/291/67 66/133/67
f 79/155/22 77/179/22 40/113/22
f 78/157/68 70/211/68 69/158/68
f 76/160/69 69/213/69 68/161/69
f 97/163/70 92/294/70 111/164/70
f 72/166/22 79/180/22 42/117/22
f 77/167/22 75/178/22 38/110/22
f 73/169/71 67/208/71 70/170/71
f 102/172/72 97/295/72 114/173/72
f 110/175/130 71/296/130 102/176/130
f 76/160/74 74/162/74 75/178/74
f 79/155/75 78/157/75 76/159/75
f 72/166/76 73/169/76 78/171/76
f 62/149/77 59/148/77 80/181/77
f 62/182/78 83/112/78 82/114/78
f 61/183/79 82/109/79 81/111/79
f 94/187/81 93/297/81 88/188/81
f 97/190/82 96/185/82 91/184/82
f 101/192/83 100/200/83 95/193/83
f 94/195/84 99/298/84 98/196/84
f 102/198/85 101/192/85 96/194/85
f 100/200/86 99/298/86 94/195/86
f 99/204/88 85/277/88 84/205/88
f 102/207/131 71/299/131 87/202/131
f 67/208/132 104/233/132 109/209/132
f 109/210/91 108/232/91 69/158/91
f 108/212/92 105/231/92 68/161/92
f 67/66/133 18/286/133 107/214/133
f 17/52/94 106/300/94 107/216/94
f 68/217/95 105/301/95 106/218/95
f 120/219/134 110/175/134 115/177/134
f 119/221/97 115/174/97 114/173/97
f 118/223/98 114/165/98 111/164/98
f 120/225/135 117/302/135 113/226/135
f 117/227/100 116/230/100 112/68/100
f 116/228/101 121/229/101 111/57/101
f 106/218/102 105/301/102 121/229/102
f 107/216/103 106/300/103 116/230/103
f 107/214/136 117/302/136 120/225/136
f 108/212/105 118/223/105 121/224/105
f 109/210/106 119/221/106 118/222/106
f 120/219/137 119/220/137 109/209/137
f 122/237/50 125/239/50 126/236/50
f 125/239/51 127/243/51 128/241/51
f 127/243/52 129/247/52 130/245/52
f 129/251/6 132/253/6 133/250/6
f 132/253/5 134/257/5 135/255/5
f 135/255/4 134/257/4 122/237/4
f 26/96/40 138/303/40 140/262/40
f 136/266/120 137/304/120 85/267/120
f 142/269/121 89/268/121 85/267/121
f 143/270/122 144/280/122 145/271/122
f 139/272/123 141/305/123 140/273/123
f 86/278/126 141/305/126 139/272/126
f 144/280/127 86/278/127 90/279/127
f 142/275/124 145/281/124 95/186/124
f 145/281/80 90/306/80 91/184/80
f 87/202/87 86/307/87 144/282/87
f 100/203/125 144/282/125 143/276/125
