# Blender v2.82 (sub 7) OBJ File: ''
# www.blender.org
o Knight
v 0.223179 0.000000 -0.387857
v -0.224679 0.000000 -0.387857
v 0.223179 0.092069 -0.387857
v -0.224679 0.092069 -0.387857
v 0.208037 0.153293 -0.361629
v -0.209536 0.153293 -0.361629
v 0.183296 0.237341 -0.317989
v -0.184795 0.237341 -0.317989
v 0.167889 0.293310 -0.291451
v -0.169389 0.293310 -0.291451
v 0.094676 0.420879 -0.206337
v -0.096175 0.420879 -0.206337
v 0.168800 0.184300 -0.293669
v -0.170300 0.184300 -0.293669
v -0.143018 0.642210 -0.046148
v -0.123887 0.828578 -0.088991
v -0.448608 -0.000000 -0.000000
v 0.447109 0.000000 0.000000
v 0.223179 -0.000000 0.387857
v -0.224679 -0.000000 0.387857
v -0.448608 0.092069 0.000000
v 0.447109 0.092069 0.000000
v 0.223179 0.092069 0.387857
v -0.224679 0.092069 0.387857
v -0.418323 0.153292 0.000000
v 0.416823 0.153293 0.000000
v 0.208037 0.153293 0.361629
v -0.209536 0.153292 0.361629
v -0.366449 0.236363 -0.000332
v 0.364949 0.236363 -0.000332
v 0.183431 0.237418 0.318066
v -0.184931 0.237418 0.318066
v -0.337001 0.286064 0.000167
v 0.335502 0.286064 0.000167
v 0.167685 0.293547 0.291323
v -0.169185 0.293547 0.291323
v -0.120600 0.437108 -0.002201
v 0.119100 0.437108 -0.002201
v 0.094651 0.420724 0.201705
v -0.096151 0.420724 0.201705
v 0.338350 0.184300 0.000000
v 0.168800 0.184300 0.293669
v -0.170300 0.184300 0.293669
v -0.339850 0.184300 0.000000
v -0.000750 0.000000 0.000000
v 0.142065 0.526534 0.282122
v -0.113830 0.642210 -0.303030
v -0.098624 0.828578 -0.300170
v 0.112330 0.642210 -0.303030
v 0.097124 0.828578 -0.300170
v -0.143564 0.526534 0.282122
v 0.178928 0.526533 0.003122
v 0.142065 0.526534 -0.275879
v -0.143564 0.526534 -0.275879
v -0.180427 0.526533 0.003122
v 0.141519 0.642210 -0.046148
v 0.122387 0.828578 -0.088991
v -0.113830 0.642210 0.210734
v -0.098624 0.828578 0.122188
v 0.112330 0.642210 0.210734
v 0.097124 0.828578 0.122188
v 0.099063 0.749318 0.097364
v -0.100563 0.749318 0.097364
v 0.124827 0.749318 -0.103986
v 0.099063 0.749318 -0.305336
v -0.100563 0.749318 -0.305336
v -0.126326 0.749318 -0.103986
v -0.124100 0.978529 -0.022584
v -0.098793 0.978529 -0.245485
v 0.097294 0.978529 -0.245485
v 0.122601 0.978529 -0.022584
v -0.114629 0.978529 0.200317
v 0.113130 0.978529 0.200317
v -0.095159 1.113485 0.050249
v -0.075790 1.113485 -0.121773
v 0.074291 1.113485 -0.121773
v 0.093660 1.113485 0.050249
v -0.075790 1.113485 0.222272
v 0.074291 1.113485 0.222272
v -0.043070 1.182034 0.050249
v -0.034387 1.182034 -0.013745
v 0.032888 1.182034 -0.013745
v 0.041570 1.182034 0.050249
v -0.034387 1.182034 0.114244
v 0.032888 1.182034 0.114244
v -0.090572 0.908508 0.241415
v 0.089072 0.908508 0.241415
v -0.078623 1.032147 0.261528
v 0.077123 1.032147 0.261528
v -0.059410 0.790651 0.393321
v 0.057911 0.790651 0.393321
v -0.045919 0.879654 0.443707
v 0.044420 0.879654 0.443707
v -0.091706 0.820046 0.248212
v 0.090206 0.820046 0.248212
v -0.042825 0.757424 0.326516
v 0.041325 0.757424 0.326516
v -0.091706 0.803689 0.181924
v 0.090206 0.803689 0.181924
v 0.099256 1.242889 0.086800
v -0.100755 1.242889 0.086800
v 0.031484 0.428809 -0.206949
v -0.032984 0.428809 -0.206949
v -0.048355 0.526534 -0.275879
v 0.046855 0.526534 -0.275879
v -0.038801 0.828578 -0.300170
v 0.037301 0.828578 -0.300170
v -0.044713 0.642210 -0.303030
v 0.043213 0.642210 -0.303030
v -0.039555 0.749318 -0.305336
v 0.038055 0.749318 -0.305336
v -0.033431 0.978529 -0.245485
v 0.031931 0.978529 -0.245485
v -0.025763 1.113485 -0.121773
v 0.024264 1.113485 -0.121773
v -0.026558 1.182034 -0.013745
v 0.025059 1.182034 -0.013745
v 0.010463 1.182034 0.114244
v -0.011962 1.182034 0.114244
v -0.029330 1.182034 0.050249
v 0.027830 1.182034 0.050249
v -0.048355 0.505189 -0.346771
v 0.046855 0.505189 -0.346771
v -0.038801 0.843660 -0.372653
v 0.037301 0.843660 -0.372653
v -0.044713 0.632684 -0.376450
v 0.043213 0.632684 -0.376450
v -0.039555 0.750865 -0.379356
v 0.038055 0.750865 -0.379356
v -0.033431 1.016621 -0.308971
v 0.031931 1.016621 -0.308971
v -0.025763 1.170168 -0.169401
v 0.024264 1.170168 -0.169401
v -0.026558 1.253235 -0.034036
v 0.025059 1.253235 -0.034036
v 0.010463 1.227503 0.161602
v -0.011962 1.227503 0.161602
v -0.029330 1.256070 0.050249
v 0.027830 1.256070 0.050249
v 0.134429 0.326714 -0.002201
v -0.135929 0.326714 -0.002201
v 0.106881 0.310484 -0.206337
v -0.108380 0.310484 -0.206337
v 0.106853 0.310329 0.201705
v -0.108353 0.310329 0.201705
vt 0.971533 0.207893
vt 0.782459 0.143607
vt 0.802806 0.108920
vt 0.802806 0.108920
vt 0.951187 0.242579
vt 0.971533 0.207893
vt 0.951187 0.242580
vt 0.773445 0.172046
vt 0.782459 0.143607
vt 0.930763 0.264326
vt 0.771719 0.208859
vt 0.891897 0.308642
vt 0.753731 0.227596
vt 0.771719 0.208860
vt 0.891897 0.308642
vt 0.899473 0.283798
vt 0.873161 0.327508
vt 0.746408 0.253156
vt 0.836198 0.668006
vt 0.680683 0.606017
vt 0.688966 0.578657
vt 0.753731 0.227597
vt 0.873161 0.327508
vt 0.773445 0.172046
vt 0.930763 0.264326
vt 0.972883 0.012284
vt 0.923431 0.560976
vt 0.743632 0.451863
vt 0.928025 0.350709
vt 0.823161 0.882776
vt 0.791821 0.935314
vt 0.791821 0.882106
vt 0.187710 0.119827
vt 0.223329 0.015740
vt 0.228927 0.124934
vt 0.067494 0.038491
vt 0.133560 0.152504
vt 0.073204 0.180440
vt 0.590525 0.030410
vt 0.718771 0.177372
vt 0.624712 0.011074
vt 0.239462 0.929163
vt 0.266402 0.767364
vt 0.266402 0.929163
vt 0.684584 0.196708
vt 0.624712 0.011074
vt 0.718771 0.177372
vt 0.568974 0.050021
vt 0.684584 0.196708
vt 0.656672 0.205074
vt 0.590525 0.030410
vt 0.549477 0.080279
vt 0.602120 0.223472
vt 0.620695 0.206193
vt 0.602120 0.223472
vt 0.549477 0.080279
vt 0.620695 0.206193
vt 0.525098 0.087295
vt 0.577046 0.230230
vt 0.577046 0.230230
vt 0.525098 0.087295
vt 0.568974 0.050021
vt 0.656672 0.205074
vt 0.815760 0.012765
vt 0.569112 0.271190
vt 0.728736 0.359736
vt 0.572241 0.453701
vt 0.474388 0.294981
vt 0.507473 0.448639
vt 0.476757 0.433171
vt 0.195378 0.224039
vt 0.143013 0.284188
vt 0.181156 0.759486
vt 0.213928 0.935316
vt 0.181156 0.937041
vt 0.015651 0.057991
vt 0.022025 0.182866
vt 0.912316 0.805923
vt 0.953451 0.737769
vt 0.953451 0.811432
vt 0.022025 0.182866
vt 0.067495 0.038491
vt 0.015651 0.057991
vt 0.027509 0.307683
vt 0.080919 0.322169
vt 0.065981 0.975288
vt 0.119616 0.747686
vt 0.119616 0.948841
vt 0.027509 0.307682
vt 0.080919 0.322169
vt 0.865433 0.887364
vt 0.823161 0.937039
vt 0.236709 0.233822
vt 0.133560 0.152503
vt 0.127769 0.019967
vt 0.195378 0.224039
vt 0.228927 0.124934
vt 0.187710 0.119827
vt 0.223329 0.015740
vt 0.182774 0.015268
vt 0.024846 0.958759
vt 0.065981 0.721239
vt 0.073204 0.180440
vt 0.143013 0.284188
vt 0.912316 0.890602
vt 0.865433 0.948838
vt 0.127769 0.019967
vt 0.307333 0.153691
vt 0.316002 0.263745
vt 0.728843 0.935466
vt 0.728843 0.877331
vt 0.301531 0.039431
vt 0.236709 0.233822
vt 0.307333 0.153691
vt 0.301531 0.039431
vt 0.316002 0.263745
vt 0.386448 0.274319
vt 0.376898 0.097056
vt 0.380467 0.186006
vt 0.656605 0.915007
vt 0.656605 0.870511
vt 0.386448 0.274319
vt 0.346276 0.296668
vt 0.376898 0.097056
vt 0.434319 0.243704
vt 0.505139 0.781520
vt 0.555622 0.818346
vt 0.555622 0.838291
vt 0.380467 0.186006
vt 0.429202 0.122350
vt 0.456662 0.213563
vt 0.429202 0.122350
vt 0.429981 0.155577
vt 0.606123 0.878182
vt 0.606123 0.871219
vt 0.283397 0.290699
vt 0.278582 0.396688
vt 0.346276 0.296668
vt 0.283397 0.290699
vt 0.278582 0.396688
vt 0.231754 0.374786
vt 0.213928 0.761211
vt 0.239043 0.298532
vt 0.231754 0.374786
vt 0.239043 0.298532
vt 0.206252 0.345749
vt 0.305964 0.885687
vt 0.227371 0.266115
vt 0.227371 0.266115
vt 0.580872 0.822844
vt 0.606123 0.818346
vt 0.606123 0.825309
vt 0.580872 0.873684
vt 0.555622 0.878182
vt 0.555622 0.858237
vt 0.434319 0.243704
vt 0.580872 0.885905
vt 0.565090 0.954979
vt 0.458500 0.208212
vt 0.580872 0.810623
vt 0.565090 0.741548
vt 0.456662 0.213563
vt 0.429981 0.155577
vt 0.458500 0.208212
vt 0.344593 0.631941
vt 0.438072 0.577319
vt 0.439093 0.627308
vt 0.631537 0.576243
vt 0.596739 0.553663
vt 0.632426 0.556910
vt 0.469502 0.917527
vt 0.375760 0.808089
vt 0.469502 0.779001
vt 0.335404 0.796089
vt 0.375760 0.888439
vt 0.335404 0.900438
vt 0.505139 0.915008
vt 0.656605 0.826016
vt 0.656605 0.781521
vt 0.104810 0.645876
vt 0.052257 0.661998
vt 0.099050 0.592897
vt 0.728843 0.819196
vt 0.728843 0.761061
vt 0.167394 0.468379
vt 0.099050 0.513257
vt 0.105398 0.459419
vt 0.791821 0.814420
vt 0.791821 0.761212
vt 0.052037 0.442055
vt 0.865433 0.747687
vt 0.912316 0.721240
vt 0.508728 0.492320
vt 0.438791 0.539397
vt 0.441042 0.489369
vt 0.865433 0.809162
vt 0.823161 0.759487
vt 0.165769 0.638156
vt 0.163334 0.586198
vt 0.953450 0.958755
vt 0.953450 0.885092
vt 0.506279 0.627608
vt 0.505743 0.576719
vt 0.429150 0.433446
vt 0.450721 0.289754
vt 0.453283 0.439206
vt 0.504555 0.278470
vt 0.534721 0.454344
vt 0.531592 0.271833
vt 0.305964 0.810841
vt 0.823161 0.813750
vt 0.539394 0.579825
vt 0.542085 0.628789
vt 0.878693 0.620989
vt 0.708606 0.558803
vt 0.711053 0.519254
vt 0.844742 0.641418
vt 0.901000 0.597938
vt 0.721201 0.488825
vt 0.595849 0.572996
vt 0.507030 0.543520
vt 0.540336 0.541673
vt 0.345016 0.532767
vt 0.343790 0.579684
vt 0.263184 0.527555
vt 0.261832 0.582223
vt 0.220248 0.524430
vt 0.219524 0.584003
vt 0.029631 0.587715
vt 0.029631 0.518438
vt 0.578475 0.618887
vt 0.262199 0.632054
vt 0.221365 0.634896
vt 0.346836 0.480534
vt 0.544681 0.493037
vt 0.264296 0.477484
vt 0.223008 0.473291
vt 0.164549 0.520717
vt 0.206252 0.345750
vt 0.581079 0.505719
vt 0.899473 0.283798
vt 0.815753 0.687986
vt 0.746408 0.253157
vt 0.182774 0.015268
vt 0.239462 0.767364
vt 0.506386 0.105302
vt 0.506386 0.105302
vt 0.024846 0.737768
vt 0.912316 0.975285
vt 0.426799 0.296338
vt 0.496317 0.120441
vt 0.486248 0.135579
vt 0.538282 0.230169
vt 0.745266 0.271737
vt 0.798539 0.698196
vt 0.712751 0.666791
vt 0.679574 0.626001
vt 0.486248 0.135579
vt 0.496317 0.120441
vt 0.538282 0.230169
vt 0.838797 0.347365
vt 0.744124 0.290317
vt 0.411615 0.304775
vt 0.413685 0.425534
vt 0.745266 0.271736
vt 0.838797 0.347365
vt 0.744124 0.290316
vt 0.398221 0.417623
vt 0.678465 0.645984
vt 0.747038 0.687599
vt 0.781324 0.708406
vt 0.804433 0.367222
vt 0.499518 0.230108
vt 0.499518 0.230108
vt 0.804433 0.367222
vt 0.396430 0.313212
vn -0.8660 0.0000 -0.5000
vn 0.8660 0.0000 -0.5000
vn -0.7961 0.3938 -0.4596
vn 0.7961 0.3938 -0.4596
vn -0.7865 -0.4218 -0.4511
vn 0.7910 -0.4070 -0.4567
vn -0.7885 0.4269 -0.4426
vn 0.0000 0.4284 -0.9036
vn 0.7709 0.4611 -0.4394
vn 0.3595 0.9098 -0.2075
vn -0.3595 0.9098 -0.2075
vn 0.0000 -1.0000 -0.0000
vn 0.0000 0.0650 -0.9979
vn 0.9915 0.0530 -0.1186
vn 0.9583 0.2560 -0.1266
vn -0.8660 0.0000 0.5000
vn 0.0000 -0.9709 0.2396
vn 0.8660 0.0000 0.5000
vn -0.7961 0.3938 0.4596
vn 0.7961 0.3938 0.4596
vn -0.7929 -0.4022 0.4578
vn 0.7929 -0.4022 0.4578
vn -0.7745 0.4545 0.4400
vn 0.7745 0.4545 0.4400
vn 0.3595 0.9098 0.2075
vn -0.3595 0.9098 0.2075
vn 0.0000 0.9098 0.4151
vn 0.9656 0.2357 0.1097
vn 0.0000 -0.2989 0.9543
vn 0.8918 -0.4468 -0.0712
vn -0.0634 -0.5686 -0.8202
vn -0.8918 -0.4468 -0.0712
vn 0.8893 -0.4519 0.0703
vn 0.0000 0.5252 0.8510
vn -0.8893 -0.4519 0.0703
vn 0.0000 -0.0215 -0.9998
vn 0.9398 0.3182 0.1242
vn 0.9928 -0.0129 0.1188
vn -0.9686 0.2231 -0.1101
vn -0.9919 0.0065 0.1269
vn -0.9914 0.0325 -0.1269
vn 0.0000 -0.6051 0.7962
vn -0.9320 0.3465 0.1059
vn -0.9848 0.1193 -0.1260
vn 0.0000 -0.2285 -0.9735
vn 0.9893 0.0935 -0.1124
vn -0.9681 0.2178 0.1239
vn 0.9909 -0.1277 0.0421
vn 0.0000 0.3426 -0.9395
vn 0.9924 0.0485 -0.1127
vn -0.9915 -0.0539 0.1186
vn -0.9920 0.0422 -0.1187
vn -0.9619 0.2702 0.0409
vn 0.9585 0.2638 -0.1079
vn 0.0000 0.6757 -0.7371
vn 0.9619 0.2702 0.0409
vn -0.9114 0.2042 0.3573
vn -0.9586 0.2632 -0.1088
vn 0.7849 0.6133 0.0884
vn 0.0000 0.8444 0.5358
vn -0.7849 0.6133 -0.0884
vn 0.5557 -0.2482 0.7935
vn 0.7916 0.6015 -0.1074
vn 0.0000 0.8444 -0.5358
vn -0.9731 0.0578 0.2230
vn 0.8623 0.0010 0.5064
vn 0.0000 0.7269 0.6867
vn 0.9755 0.0240 0.2187
vn 0.0000 -0.9231 -0.3846
vn 0.9744 0.0296 0.2229
vn -0.8276 -0.5567 0.0714
vn 0.0000 -0.7810 -0.6246
vn 0.9890 -0.1358 0.0580
vn -0.9905 -0.1333 0.0329
vn -0.9890 -0.1358 0.0580
vn 0.0000 1.0000 -0.0000
vn -0.8185 0.0544 0.5719
vn -0.7849 0.6133 0.0884
vn 0.6937 0.7141 -0.0941
vn 0.3217 0.2445 -0.9147
vn -0.6937 0.7141 -0.0941
vn -0.5557 -0.2482 0.7935
vn -0.3217 0.2445 -0.9147
vn 0.9991 0.0271 0.0323
vn 0.0000 -0.7214 0.6926
vn 0.0000 0.7668 0.6419
vn 0.0000 -0.4927 0.8702
vn 0.0000 0.4347 0.9006
vn 0.9909 -0.1286 0.0387
vn -0.9995 0.0294 -0.0088
vn -0.9909 -0.1286 0.0387
vn -1.0000 -0.0040 -0.0048
vn 0.9996 0.0277 -0.0036
vn 0.0634 -0.5686 -0.8202
vn 1.0000 -0.0014 -0.0050
vn 0.0000 0.4301 0.9028
vn 0.0000 -0.4174 0.9087
vn 0.0000 0.3938 0.9192
vn 0.0000 0.0000 1.0000
vn 0.0000 -0.8954 0.4453
vn 0.9991 0.0000 -0.0433
vn 0.0000 0.9098 -0.4151
vn 0.0000 -0.4168 -0.9090
vn 0.0000 0.3938 -0.9192
vn 0.0000 0.0000 -1.0000
vn 0.0000 0.9686 0.2485
vn 0.0000 0.9994 -0.0336
vn 0.0000 0.8523 -0.5230
vn 0.0000 0.6726 -0.7400
vn 0.0000 0.3455 -0.9384
vn 0.0000 -0.2267 -0.9740
vn -0.0000 -0.0246 -0.9997
vn 0.0000 -0.8776 -0.4794
vn 0.0000 0.0720 -0.9974
vn 0.9311 -0.2632 0.2527
vn 1.0000 0.0080 0.0017
vn 0.9988 0.0481 0.0010
vn -0.9993 0.0323 0.0194
vn -0.9881 0.0000 0.1541
vn -1.0000 0.0095 0.0002
vn -0.9990 0.0435 -0.0056
vn 0.9996 0.0254 0.0153
vn -0.9994 -0.0093 -0.0326
vn -0.9994 0.0333 0.0069
vn 0.8276 -0.5567 0.0714
vn -0.9744 0.0296 0.2229
vn 0.8185 0.0544 0.5719
vn 0.9905 -0.1333 0.0329
vn -0.8232 -0.5572 0.1088
vn -0.8291 -0.5482 -0.1096
vn 0.8291 -0.5482 -0.1096
vn 0.8232 -0.5572 0.1088
vn -0.9909 -0.1277 0.0421
vn -0.9823 0.1510 0.1106
vn 0.9915 -0.0539 0.1186
vn 0.9823 0.1510 0.1106
vn 0.9114 0.2042 0.3573
vn -0.8623 0.0010 0.5064
vn -0.9311 -0.2632 0.2527
vn 0.9881 -0.0000 0.1541
vn -0.7910 -0.4070 -0.4567
vn 0.7865 -0.4218 -0.4511
vn -0.7709 0.4611 -0.4394
vn 0.7885 0.4269 -0.4426
vn 0.9914 0.0325 -0.1269
vn 0.9686 0.2231 -0.1101
vn -0.7865 -0.4232 0.4498
vn 0.7865 -0.4232 0.4498
vn -0.7864 0.4313 0.4422
vn 0.7864 0.4313 0.4422
vn 0.9681 0.2178 0.1239
vn 0.0000 -0.5498 -0.8353
vn 0.9320 0.3465 0.1059
vn 0.9919 0.0065 0.1269
vn -0.9583 0.2560 -0.1266
vn -0.9928 -0.0129 0.1188
vn -0.9915 0.0530 -0.1186
vn -0.9398 0.3182 0.1242
vn -0.9893 0.0935 -0.1124
vn 0.9848 0.1193 -0.1260
vn -0.9656 0.2357 0.1097
vn 0.9920 0.0422 -0.1187
vn -0.9924 0.0485 -0.1127
vn 0.9586 0.2632 -0.1088
vn -0.9585 0.2638 -0.1079
vn -0.7916 0.6015 -0.1074
vn 0.7849 0.6133 -0.0884
vn -0.9755 0.0240 0.2187
vn 0.9731 0.0578 0.2230
vn 0.9993 0.0323 0.0194
vn -0.9996 0.0277 -0.0036
vn -1.0000 -0.0014 -0.0050
vn 0.9995 0.0294 -0.0088
vn 1.0000 -0.0040 -0.0048
vn 0.9994 -0.0093 -0.0326
vn 1.0000 0.0095 0.0002
vn 0.9990 0.0435 -0.0056
vn -0.9991 0.0271 0.0323
vn -1.0000 0.0080 0.0017
vn -0.9988 0.0481 0.0010
vn 0.9994 0.0333 0.0069
vn -0.9991 0.0000 -0.0433
vn -0.9996 0.0254 0.0153
vn -0.3455 0.8436 0.4111
vn -0.6474 -0.3568 0.6734
vn -0.7224 0.6914 -0.0001
vn 0.6565 0.7543 0.0019
vn 0.3363 0.7536 -0.5647
vn 0.3471 0.8398 -0.4173
vn -0.3471 0.8398 -0.4173
vn 0.0641 -0.4288 -0.9011
vn 0.6474 -0.3568 0.6734
vn 0.3455 0.8436 0.4111
vn 0.7224 0.6914 -0.0001
vn 0.6346 -0.3270 -0.7002
vn 0.3331 0.7571 0.5620
vn -0.6346 -0.3270 -0.7002
vn -0.3363 0.7536 -0.5647
vn -0.6565 0.7543 0.0019
vn -0.3331 0.7571 0.5620
vn -0.0641 -0.4288 -0.9011
vn -0.9730 -0.2306 -0.0019
vn 0.9730 -0.2306 -0.0019
s off
f 17/1/1 4/2/1 2/3/1
f 1/4/2 22/5/2 18/6/2
f 21/7/3 6/8/3 4/2/3
f 3/9/4 26/10/4 22/5/4
f 14/11/5 29/12/5 8/13/5
f 13/14/6 30/15/6 41/16/6
f 8/13/7 33/17/7 10/18/7
f 8/19/8 9/20/8 7/21/8
f 7/22/9 34/23/9 30/15/9
f 5/24/10 41/16/10 26/10/10
f 25/25/11 14/11/11 6/8/11
f 17/1/12 2/3/12 45/26/12
f 2/27/12 1/28/12 45/29/12
f 18/6/12 45/26/12 1/4/12
f 110/30/13 48/31/13 106/32/13
f 64/33/14 50/34/14 57/35/14
f 53/36/15 56/37/15 52/38/15
f 24/39/16 17/40/16 20/41/16
f 98/42/17 95/43/17 94/44/17
f 22/45/18 19/46/18 18/47/18
f 28/48/19 21/49/19 24/39/19
f 26/50/20 23/51/20 22/45/20
f 43/52/21 29/53/21 44/54/21
f 30/55/22 42/56/22 41/57/22
f 32/58/23 33/59/23 29/53/23
f 34/60/24 31/61/24 30/55/24
f 41/57/25 27/62/25 26/50/25
f 43/52/26 25/63/26 28/48/26
f 17/40/12 45/64/12 20/41/12
f 20/65/12 45/66/12 19/67/12
f 18/47/12 19/46/12 45/64/12
f 43/68/27 27/69/27 42/70/27
f 56/37/28 62/71/28 60/72/28
f 62/73/29 59/74/29 63/75/29
f 11/76/30 53/36/30 38/77/30
f 105/78/31 11/79/31 102/80/31
f 37/81/32 54/82/32 12/83/32
f 39/84/33 38/77/33 46/85/33
f 51/86/34 60/87/34 58/88/34
f 37/81/35 40/89/35 51/90/35
f 108/91/36 66/92/36 110/30/36
f 52/38/37 60/72/37 46/85/37
f 62/71/38 57/35/38 61/93/38
f 54/82/39 15/94/39 47/95/39
f 63/96/40 16/97/40 67/98/40
f 67/98/41 48/99/41 66/100/41
f 40/101/42 46/102/42 51/86/42
f 55/103/43 58/104/43 15/94/43
f 47/95/44 67/98/44 66/100/44
f 104/105/45 47/106/45 108/91/45
f 49/107/46 64/33/46 56/37/46
f 15/94/47 63/96/47 67/98/47
f 61/93/48 71/108/48 73/109/48
f 106/32/49 69/110/49 112/111/49
f 57/35/50 70/112/50 71/108/50
f 16/97/51 59/113/51 68/114/51
f 16/97/52 69/115/52 48/99/52
f 68/114/53 72/116/53 78/117/53
f 71/108/54 76/118/54 77/119/54
f 112/111/55 75/120/55 114/121/55
f 73/109/56 71/108/56 79/122/56
f 78/117/57 72/116/57 88/123/57
f 68/114/58 75/124/58 69/115/58
f 79/122/59 77/119/59 85/125/59
f 79/126/60 85/127/60 118/128/60
f 74/129/61 81/130/61 75/124/61
f 85/125/62 77/119/62 100/131/62
f 77/119/63 82/132/63 83/133/63
f 114/121/64 81/134/64 116/135/64
f 86/136/65 92/137/65 88/123/65
f 73/109/66 89/138/66 87/139/66
f 60/87/67 63/75/67 58/88/67
f 87/139/68 93/140/68 91/141/68
f 61/142/69 98/42/69 59/74/69
f 87/139/70 91/141/70 95/143/70
f 90/144/71 94/145/71 96/146/71
f 95/43/72 96/147/72 94/44/72
f 73/109/73 99/148/73 61/93/73
f 98/149/74 94/145/74 72/116/74
f 59/113/75 98/149/75 72/116/75
f 121/150/76 82/151/76 117/152/76
f 86/136/77 72/116/77 94/145/77
f 120/153/76 84/154/76 119/155/76
f 84/156/78 74/129/78 78/117/78
f 84/154/79 80/157/79 101/158/79
f 77/119/80 83/133/80 100/159/80
f 83/160/81 85/127/81 100/161/81
f 74/129/82 84/156/82 101/162/82
f 80/163/83 74/129/83 101/164/83
f 85/127/76 121/150/76 118/128/76
f 113/165/84 133/166/84 115/167/84
f 120/153/76 81/134/76 80/157/76
f 118/168/85 137/169/85 119/170/85
f 88/171/86 93/172/86 89/173/86
f 91/174/87 92/175/87 90/176/87
f 78/177/88 89/173/88 79/126/88
f 115/178/64 82/151/64 76/179/64
f 105/180/89 102/181/89 123/182/89
f 78/177/60 119/155/60 84/154/60
f 79/126/60 119/155/60 78/177/60
f 113/183/55 76/179/55 70/184/55
f 108/185/90 122/186/90 104/187/90
f 107/188/49 70/184/49 50/189/49
f 103/190/91 104/187/91 122/186/91
f 105/78/45 49/191/45 53/192/45
f 116/193/92 132/194/92 114/195/92
f 109/196/36 65/197/36 49/191/36
f 109/198/93 123/182/93 127/199/93
f 12/200/94 104/105/94 103/201/94
f 117/202/95 133/166/95 135/203/95
f 35/204/96 32/205/96 31/206/96
f 31/206/97 43/68/97 42/70/97
f 28/207/98 23/208/98 27/69/98
f 24/209/99 19/67/99 23/208/99
f 90/176/100 97/210/100 91/174/100
f 111/211/13 50/189/13 65/197/13
f 117/202/101 139/212/101 121/213/101
f 6/214/102 13/215/102 5/216/102
f 14/217/103 7/21/103 13/215/103
f 4/218/104 5/216/104 3/219/104
f 2/27/105 3/219/105 1/28/105
f 139/212/106 137/169/106 136/220/106
f 139/212/107 134/221/107 138/222/107
f 132/194/108 135/203/108 133/166/108
f 130/223/109 133/166/109 131/224/109
f 124/225/110 131/224/110 125/226/110
f 122/186/111 127/199/111 123/182/111
f 127/199/112 128/227/112 129/228/112
f 122/186/113 102/229/113 103/230/113
f 129/228/114 124/225/114 125/226/114
f 118/231/115 121/213/115 136/220/115
f 107/232/116 129/228/116 125/226/116
f 109/198/117 129/228/117 111/233/117
f 112/234/118 132/194/118 130/223/118
f 120/235/119 137/169/119 138/222/119
f 106/236/120 128/227/120 110/237/120
f 108/185/121 128/227/121 126/238/121
f 113/165/122 125/226/122 131/224/122
f 116/193/123 138/222/123 134/221/123
f 112/234/124 124/225/124 106/236/124
f 95/143/125 91/141/125 97/239/125
f 94/145/126 90/144/126 86/136/126
f 73/109/127 87/139/127 95/143/127
f 95/143/128 99/148/128 73/109/128
f 51/90/129 55/103/129 37/81/129
f 54/82/130 37/81/130 55/103/130
f 38/77/131 53/36/131 52/38/131
f 46/85/132 38/77/132 52/38/132
f 68/114/133 59/113/133 72/116/133
f 78/117/134 74/129/134 68/114/134
f 71/108/135 61/93/135 57/35/135
f 79/122/136 71/108/136 77/119/136
f 89/138/137 73/109/137 79/122/137
f 88/123/138 72/116/138 86/136/138
f 137/169/139 120/235/139 119/240/139
f 136/220/140 121/213/140 139/212/140
f 17/1/1 21/7/1 4/2/1
f 1/4/2 3/9/2 22/5/2
f 21/7/3 25/25/3 6/8/3
f 3/9/4 5/24/4 26/10/4
f 14/11/141 44/241/141 29/12/141
f 13/14/142 7/22/142 30/15/142
f 8/13/143 29/12/143 33/17/143
f 8/19/8 10/242/8 9/20/8
f 7/22/144 9/243/144 34/23/144
f 5/24/10 13/14/10 41/16/10
f 25/25/11 44/241/11 14/11/11
f 110/30/13 66/92/13 48/31/13
f 64/33/145 65/244/145 50/34/145
f 53/36/146 49/107/146 56/37/146
f 24/39/16 21/49/16 17/40/16
f 98/42/17 99/245/17 95/43/17
f 22/45/18 23/51/18 19/46/18
f 28/48/19 25/63/19 21/49/19
f 26/50/20 27/62/20 23/51/20
f 43/52/147 32/58/147 29/53/147
f 30/55/148 31/61/148 42/56/148
f 32/58/149 36/246/149 33/59/149
f 34/60/150 35/247/150 31/61/150
f 41/57/25 42/56/25 27/62/25
f 43/52/26 44/54/26 25/63/26
f 43/68/27 28/207/27 27/69/27
f 56/37/151 64/33/151 62/71/151
f 62/73/29 61/142/29 59/74/29
f 105/78/152 53/192/152 11/79/152
f 51/86/34 46/102/34 60/87/34
f 108/91/36 47/106/36 66/92/36
f 52/38/153 56/37/153 60/72/153
f 62/71/154 64/33/154 57/35/154
f 54/82/155 55/103/155 15/94/155
f 63/96/156 59/113/156 16/97/156
f 67/98/157 16/97/157 48/99/157
f 40/101/42 39/248/42 46/102/42
f 55/103/158 51/90/158 58/104/158
f 47/95/159 15/94/159 67/98/159
f 104/105/45 54/249/45 47/106/45
f 49/107/160 65/244/160 64/33/160
f 15/94/161 58/104/161 63/96/161
f 106/32/49 48/31/49 69/110/49
f 57/35/162 50/34/162 70/112/162
f 16/97/163 68/114/163 69/115/163
f 71/108/164 70/112/164 76/118/164
f 112/111/55 69/110/55 75/120/55
f 68/114/165 74/129/165 75/124/165
f 74/129/166 80/163/166 81/130/166
f 77/119/167 76/118/167 82/132/167
f 114/121/64 75/120/64 81/134/64
f 86/136/168 90/144/168 92/137/168
f 60/87/67 62/73/67 63/75/67
f 87/139/169 89/138/169 93/140/169
f 61/142/69 99/245/69 98/42/69
f 95/43/72 97/210/72 96/147/72
f 121/150/76 83/160/76 82/151/76
f 120/153/76 80/157/76 84/154/76
f 85/127/76 83/160/76 121/150/76
f 113/165/170 131/224/170 133/166/170
f 120/153/76 116/135/76 81/134/76
f 118/168/85 136/220/85 137/169/85
f 88/171/86 92/175/86 93/172/86
f 91/174/87 93/172/87 92/175/87
f 78/177/88 88/171/88 89/173/88
f 115/178/64 117/152/64 82/151/64
f 79/126/60 118/128/60 119/155/60
f 113/183/55 115/178/55 76/179/55
f 108/185/171 126/238/171 122/186/171
f 107/188/49 113/183/49 70/184/49
f 105/78/45 109/196/45 49/191/45
f 116/193/172 134/221/172 132/194/172
f 109/196/36 111/211/36 65/197/36
f 109/198/173 105/180/173 123/182/173
f 12/200/152 54/249/152 104/105/152
f 117/202/174 115/167/174 133/166/174
f 35/204/96 36/250/96 32/205/96
f 31/206/97 32/205/97 43/68/97
f 28/207/98 24/209/98 23/208/98
f 24/209/99 20/65/99 19/67/99
f 90/176/100 96/147/100 97/210/100
f 111/211/13 107/188/13 50/189/13
f 117/202/175 135/203/175 139/212/175
f 6/214/102 14/217/102 13/215/102
f 14/217/103 8/19/103 7/21/103
f 4/218/104 6/214/104 5/216/104
f 2/27/105 4/218/105 3/219/105
f 139/212/106 138/222/106 137/169/106
f 139/212/107 135/203/107 134/221/107
f 132/194/108 134/221/108 135/203/108
f 130/223/109 132/194/109 133/166/109
f 124/225/110 130/223/110 131/224/110
f 122/186/111 126/238/111 127/199/111
f 127/199/112 126/238/112 128/227/112
f 122/186/113 123/182/113 102/229/113
f 129/228/114 128/227/114 124/225/114
f 107/232/176 111/233/176 129/228/176
f 109/198/177 127/199/177 129/228/177
f 112/234/178 114/195/178 132/194/178
f 106/236/179 124/225/179 128/227/179
f 108/185/180 110/237/180 128/227/180
f 113/165/181 107/232/181 125/226/181
f 116/193/182 120/235/182 138/222/182
f 112/234/183 130/223/183 124/225/183
s 1
f 145/251/184 40/252/185 141/253/186
f 34/23/187 9/243/188 142/254/189
f 143/255/190 102/256/191 142/257/189
f 39/258/192 144/259/193 140/260/194
f 140/261/194 142/254/189 11/262/195
f 145/263/184 35/204/196 144/264/193
f 143/265/190 141/266/186 12/267/197
f 143/255/190 9/20/188 10/242/198
f 10/18/198 33/17/199 143/265/190
f 39/268/192 145/263/184 144/264/193
f 36/246/200 145/251/184 33/59/199
f 144/259/193 34/60/187 140/260/194
f 142/257/189 102/256/191 11/269/195
f 103/270/201 143/255/190 12/271/197
f 142/254/189 140/261/194 34/23/187
f 34/60/187 144/259/193 35/247/196
f 33/59/199 145/251/184 141/253/186
f 143/265/190 33/17/199 141/266/186
f 12/267/197 141/266/186 37/272/202
f 141/253/186 40/252/185 37/273/202
f 140/260/194 38/274/203 39/258/192
f 11/262/195 38/275/203 140/261/194
f 143/255/190 103/270/201 102/256/191
f 145/263/184 36/250/200 35/204/196
f 143/255/190 142/257/189 9/20/188
f 39/268/192 40/276/185 145/263/184
