# Blender v2.82 (sub 7) OBJ File: ''
# www.blender.org
o Bishop.002
v -0.148775 0.485131 0.001008
v -0.061513 0.773123 -0.105105
v -0.074512 0.485131 -0.127620
v 0.074014 0.485131 -0.127620
v 0.061016 0.773123 -0.105105
v 0.148278 0.485131 0.001008
v 0.218839 0.090077 -0.378463
v 0.437926 -0.000001 0.001008
v 0.218839 -0.000001 -0.378463
v -0.219336 0.090077 -0.378463
v -0.219336 -0.000001 -0.378463
v -0.438424 0.090077 0.001008
v -0.438424 -0.000001 0.001008
v 0.204023 0.149977 -0.352802
v 0.437926 0.090077 0.001008
v -0.204521 0.149977 -0.352802
v -0.408793 0.149977 0.001008
v 0.165635 0.180314 -0.286312
v 0.358559 0.231831 0.001008
v 0.331519 0.180314 0.001008
v -0.179653 0.231831 -0.309729
v -0.166133 0.180314 -0.286312
v -0.359057 0.231831 0.001008
v -0.332017 0.180314 0.001008
v 0.179155 0.231831 -0.309729
v 0.328921 0.283490 0.001008
v -0.164834 0.283490 -0.284061
v -0.329419 0.283490 0.001008
v 0.164336 0.283490 -0.284061
v 0.250423 0.311649 0.001008
v 0.125087 0.311649 -0.216081
v -0.250920 0.311649 0.001008
v 0.408296 0.149977 0.001008
v -0.109572 0.773123 -0.188345
v 0.109074 0.773123 -0.188345
v -0.129058 0.800113 -0.222097
v 0.109256 0.841533 -0.188661
v 0.128561 0.800113 -0.222097
v -0.219259 0.841533 0.001008
v -0.109754 0.841533 -0.188661
v -0.165243 0.888979 0.001008
v -0.061065 0.901658 -0.104323
v -0.082735 0.888979 -0.141901
v 0.218397 0.773123 0.001008
v 0.122281 0.773123 0.001008
v -0.218895 0.773123 0.001008
v 0.257370 0.800113 0.001008
v 0.218762 0.841533 0.001008
v 0.060561 0.901658 -0.104323
v 0.082282 0.888979 -0.141901
v 0.164187 0.889063 0.001008
v 0.120923 0.901741 0.001008
v -0.125585 0.311649 -0.216081
v -0.210915 0.948552 0.001008
v -0.121878 1.060029 -0.209654
v -0.105583 0.948552 -0.181431
v -0.023615 1.388225 0.001008
v -0.058759 1.279865 -0.100328
v -0.210915 1.171506 0.001008
v -0.121878 0.901658 0.001008
v -0.158249 1.171506 -0.090211
v -0.243504 1.060029 0.001008
v 0.121374 1.060029 -0.209654
v 0.105079 0.948552 -0.181431
v -0.011934 1.388225 -0.019225
v 0.058254 1.279865 -0.100328
v -0.105583 1.171506 -0.181431
v 0.242999 1.060029 0.001008
v 0.210410 0.948552 0.001008
v 0.023110 1.388225 0.001008
v 0.210410 1.171506 0.001008
v 0.157744 1.171506 -0.090211
v -0.000249 -0.000001 0.001008
v -0.061513 0.773123 0.107121
v -0.122778 0.773123 0.001008
v 0.074014 0.485131 0.129636
v -0.074512 0.485131 0.129636
v 0.061016 0.773123 0.107121
v 0.218839 0.090077 0.380479
v 0.218839 -0.000001 0.380479
v -0.219336 0.090077 0.380479
v -0.219336 -0.000001 0.380479
v 0.204023 0.149977 0.354818
v -0.204521 0.149977 0.354818
v 0.165635 0.180314 0.288328
v 0.179155 0.231831 0.311745
v -0.179653 0.231831 0.311745
v -0.166133 0.180314 0.288328
v 0.164336 0.283490 0.286077
v -0.164834 0.283490 0.286077
v 0.125087 0.311649 0.218096
v -0.125585 0.311649 0.218096
v -0.109572 0.773123 0.190361
v 0.128561 0.800113 0.224113
v -0.109754 0.841533 0.190677
v -0.129058 0.800113 0.224113
v -0.257868 0.800113 0.001008
v -0.061065 0.901658 0.106339
v -0.082735 0.888979 0.143917
v 0.109256 0.841533 0.190677
v 0.060561 0.901658 0.106339
v 0.082282 0.888979 0.143917
v 0.109074 0.773123 0.190361
v -0.105583 0.948552 0.183447
v -0.121878 1.060029 0.211670
v -0.105583 1.171506 0.183447
v 0.105079 0.948552 0.183447
v 0.011429 1.388225 0.021241
v -0.011934 1.388225 0.021241
v 0.121374 1.060029 0.211670
v 0.105079 1.171506 0.183447
v 0.082171 0.851101 0.143780
v -0.082687 0.851101 0.143780
v 0.082171 0.851101 -0.141764
v 0.164372 0.851126 0.001008
v -0.082687 0.851101 -0.141764
v 0.184008 0.875877 0.001008
v 0.092120 0.875797 0.160970
v -0.092588 0.875797 0.160970
v -0.184942 0.875797 0.001008
v 0.092120 0.875797 -0.158954
v -0.092588 0.875797 -0.158954
v -0.165116 0.851101 0.001008
v -0.000563 1.371206 0.001217
v 0.057904 1.404962 0.001217
v 0.028670 1.404962 0.051851
v 0.057904 1.472473 0.001217
v -0.000563 1.506229 0.001217
v 0.028670 1.472473 0.051851
v -0.029796 1.404962 0.051851
v -0.029796 1.472473 0.051851
v -0.059030 1.404962 0.001217
v -0.059030 1.472473 0.001217
v -0.029796 1.404962 -0.049416
v -0.029796 1.472473 -0.049416
v 0.028670 1.404962 -0.049416
v 0.028670 1.472473 -0.049416
v -0.082171 1.225686 -0.140879
v 0.081666 1.225686 -0.140879
v 0.105079 1.171506 -0.181431
v -0.200877 1.115768 0.046618
v 0.200372 1.115768 0.046618
v 0.212593 1.060029 0.053674
v -0.213098 1.060029 0.053674
v 0.011429 1.388225 -0.019225
vt 0.477626 0.382509
vt 0.502230 0.595329
vt 0.374706 0.483907
vt 0.587135 0.511680
vt 0.374706 0.483907
vt 0.477626 0.382510
vt 0.587134 0.511682
vt 0.374705 0.483908
vt 0.477625 0.382511
vt 0.364294 0.066743
vt 0.023707 0.328367
vt 0.327337 0.029231
vt 0.364293 0.066743
vt 0.023707 0.328367
vt 0.327336 0.029231
vt 0.364293 0.066743
vt 0.023707 0.328367
vt 0.327337 0.029230
vt 0.380763 0.103994
vt 0.060664 0.365880
vt 0.380763 0.103994
vt 0.060664 0.365879
vt 0.380763 0.103994
vt 0.060664 0.365879
vt 0.384147 0.160637
vt 0.168099 0.419926
vt 0.154250 0.387131
vt 0.416733 0.174972
vt 0.154251 0.387130
vt 0.384147 0.160636
vt 0.416733 0.174972
vt 0.154251 0.387130
vt 0.384147 0.160636
vt 0.416732 0.174973
vt 0.202034 0.433832
vt 0.430131 0.209111
vt 0.168100 0.419926
vt 0.430131 0.209111
vt 0.168100 0.419926
vt 0.430130 0.209112
vt 0.259420 0.437680
vt 0.259421 0.437679
vt 0.202035 0.433831
vt 0.433122 0.266548
vt 0.202035 0.433831
vt 0.097666 0.382902
vt 0.097665 0.382903
vt 0.097665 0.382903
vt 0.502229 0.595330
vt 0.654588 0.513536
vt 0.503079 0.662802
vt 0.685821 0.518229
vt 0.542523 0.703091
vt 0.507307 0.694103
vt 0.507307 0.694103
vt 0.694284 0.553575
vt 0.542523 0.703091
vt 0.716389 0.613446
vt 0.633347 0.727788
vt 0.602042 0.726101
vt 0.503077 0.662805
vt 0.502228 0.595332
vt 0.654588 0.513535
vt 0.503079 0.662802
vt 0.507304 0.694105
vt 0.694282 0.553578
vt 0.542521 0.703094
vt 0.716387 0.613460
vt 0.633362 0.727802
vt 0.602040 0.726115
vt 0.602383 0.725996
vt 0.717609 0.644782
vt 0.633575 0.727753
vt 0.685820 0.518232
vt 0.433122 0.266549
vt 0.433122 0.266549
vt 0.259422 0.437679
vt 0.544546 0.077482
vt 0.634406 0.255892
vt 0.544150 0.242882
vt 0.027119 0.382648
vt 0.141827 0.491528
vt 0.027119 0.679775
vt 0.473719 0.208145
vt 0.473376 0.112442
vt 0.724922 0.160615
vt 0.634864 0.064905
vt 0.436681 0.780939
vt 0.534548 0.974094
vt 0.436680 0.960226
vt 0.278698 0.526886
vt 0.458334 0.601044
vt 0.344343 0.697232
vt 0.359874 0.922338
vt 0.359874 0.818827
vt 0.632415 0.780940
vt 0.534548 0.767072
vt 0.544150 0.242882
vt 0.634864 0.064905
vt 0.544546 0.077482
vt 0.141827 0.491528
vt 0.027119 0.382648
vt 0.027119 0.679775
vt 0.473719 0.208145
vt 0.473376 0.112442
vt 0.634406 0.255892
vt 0.724922 0.160615
vt 0.019835 0.020773
vt 0.374707 0.483907
vt 0.587137 0.511680
vt 0.502231 0.595329
vt 0.477627 0.382509
vt 0.502230 0.595329
vt 0.374706 0.483907
vt 0.477626 0.382511
vt 0.502228 0.595331
vt 0.374705 0.483908
vt 0.327337 0.029231
vt 0.060664 0.365880
vt 0.023707 0.328367
vt 0.327337 0.029230
vt 0.060664 0.365879
vt 0.023707 0.328367
vt 0.327337 0.029230
vt 0.060665 0.365879
vt 0.023708 0.328367
vt 0.380763 0.103994
vt 0.097665 0.382903
vt 0.380763 0.103994
vt 0.097666 0.382902
vt 0.364294 0.066742
vt 0.097666 0.382902
vt 0.154251 0.387130
vt 0.416733 0.174972
vt 0.168099 0.419926
vt 0.384147 0.160636
vt 0.168100 0.419926
vt 0.154251 0.387130
vt 0.384147 0.160636
vt 0.168100 0.419926
vt 0.154252 0.387130
vt 0.430130 0.209111
vt 0.202034 0.433832
vt 0.416733 0.174972
vt 0.202035 0.433831
vt 0.430131 0.209110
vt 0.202036 0.433831
vt 0.433122 0.266549
vt 0.259421 0.437679
vt 0.430131 0.209111
vt 0.259421 0.437679
vt 0.259422 0.437678
vt 0.380764 0.103993
vt 0.384147 0.160636
vt 0.587136 0.511680
vt 0.503079 0.662802
vt 0.685822 0.518229
vt 0.542523 0.703091
vt 0.507307 0.694103
vt 0.694286 0.553575
vt 0.507308 0.694102
vt 0.685823 0.518228
vt 0.717625 0.644757
vt 0.602058 0.726085
vt 0.716405 0.613430
vt 0.654587 0.513537
vt 0.587134 0.511682
vt 0.503080 0.662802
vt 0.685820 0.518231
vt 0.542521 0.703093
vt 0.507305 0.694104
vt 0.717638 0.644773
vt 0.602071 0.726084
vt 0.716418 0.613429
vt 0.716289 0.613776
vt 0.633366 0.727777
vt 0.602035 0.726108
vt 0.654589 0.513535
vt 0.654588 0.513535
vt 0.503077 0.662804
vt 0.433122 0.266548
vt 0.477627 0.382509
vt 0.893345 0.282866
vt 0.899747 0.441479
vt 0.813659 0.457243
vt 0.726582 0.448468
vt 0.519210 0.368593
vt 0.720180 0.289855
vt 0.966344 0.405218
vt 0.962647 0.313642
vt 0.901641 0.198054
vt 0.898602 0.060927
vt 0.950713 0.095637
vt 0.838899 0.042062
vt 0.680037 0.035892
vt 0.685479 0.024534
vt 0.955886 0.197434
vt 0.984218 0.138303
vt 0.841938 0.179189
vt 0.899747 0.441479
vt 0.893345 0.282866
vt 0.813659 0.457243
vt 0.720180 0.289855
vt 0.519920 0.386183
vt 0.726582 0.448468
vt 0.966344 0.405218
vt 0.694283 0.553578
vt 0.580920 0.704547
vt 0.695153 0.591998
vt 0.694285 0.553575
vt 0.695154 0.591991
vt 0.542524 0.703091
vt 0.695164 0.591995
vt 0.581087 0.704547
vt 0.694284 0.553576
vt 0.580928 0.704533
vt 0.580922 0.704533
vt 0.714254 0.598008
vt 0.586356 0.723879
vt 0.714392 0.597736
vt 0.586400 0.723834
vt 0.714380 0.597733
vt 0.586388 0.723831
vt 0.586648 0.723726
vt 0.716407 0.613429
vt 0.586379 0.723855
vt 0.586376 0.723842
vt 0.714368 0.597744
vt 0.714371 0.597757
vt 0.580917 0.704538
vt 0.580916 0.704545
vt 0.695160 0.592162
vt 0.978107 0.694520
vt 0.902980 0.730609
vt 0.902980 0.658430
vt 0.819635 0.730609
vt 0.744509 0.694520
vt 0.819635 0.658430
vt 0.978108 0.622340
vt 0.902981 0.586251
vt 0.744509 0.622340
vt 0.819635 0.586251
vt 0.978108 0.550161
vt 0.902981 0.514071
vt 0.744509 0.550161
vt 0.819635 0.514071
vt 0.978107 0.911057
vt 0.902980 0.947147
vt 0.902981 0.874968
vt 0.819635 0.947147
vt 0.744509 0.911057
vt 0.819635 0.874968
vt 0.978107 0.838878
vt 0.902981 0.802788
vt 0.744509 0.838878
vt 0.819635 0.802788
vt 0.978107 0.766699
vt 0.744509 0.766699
vt 0.778285 0.224717
vt 0.725151 0.243099
vt 0.690010 0.940300
vt 0.632415 0.960226
vt 0.725151 0.243099
vt 0.778285 0.224717
vt 0.323525 0.868161
vt 0.148319 0.964731
vt 0.049278 0.868160
vt 0.316992 0.821281
vt 0.055812 0.821281
vt 0.047857 0.784710
vt 0.324946 0.784710
vt 0.083559 0.656669
vt 0.239724 0.608384
vt 0.289244 0.656669
vt 0.764824 0.321627
vt 0.764824 0.321627
vt 0.028065 0.750429
vt 0.344738 0.750429
vt 0.808115 0.319880
vt 0.806268 0.274092
vt 0.808115 0.319879
vt 0.587136 0.511680
vt 0.685822 0.518229
vt 0.717627 0.644755
vt 0.654586 0.513538
vt 0.717642 0.644769
vt 0.050021 0.374724
vt 0.301457 0.507681
vt 0.050022 0.374724
vt 0.364294 0.066743
vt 0.364294 0.066742
vt 0.416733 0.174971
vt 0.433123 0.266548
vt 0.633346 0.727789
vt 0.633358 0.727806
vt 0.717580 0.644990
vt 0.519920 0.386183
vt 0.789827 0.144480
vt 0.519210 0.368593
vt 0.962874 0.313803
vt 0.695166 0.591986
vt 0.695159 0.591985
vt 0.714412 0.597719
vt 0.690010 0.800865
vt 0.224484 0.964731
vt 0.133079 0.608384
vt 0.806267 0.274092
vn -0.8634 0.0779 -0.4985
vn 0.0000 0.0779 -0.9970
vn 0.8634 0.0779 -0.4985
vn 0.8660 0.0000 -0.5000
vn 0.0000 0.0000 -1.0000
vn -0.8660 0.0000 -0.5000
vn 0.7961 0.3938 -0.4596
vn 0.0000 0.3938 -0.9192
vn -0.7961 0.3938 -0.4596
vn 0.7884 -0.4138 -0.4552
vn 0.0000 -0.4138 -0.9104
vn -0.7884 -0.4138 -0.4552
vn 0.7756 0.4450 -0.4478
vn 0.0000 0.4450 -0.8955
vn -0.7756 0.4450 -0.4478
vn 0.3314 0.9239 -0.1913
vn 0.0000 0.9239 -0.3827
vn -0.3314 0.9239 -0.1913
vn -0.3595 0.9098 -0.2075
vn 0.0000 0.9098 -0.4151
vn 0.3595 0.9098 -0.2075
vn 0.0000 -1.0000 -0.0000
vn 0.0000 0.6281 -0.7781
vn -0.6739 0.6281 -0.3891
vn -0.2770 0.9475 -0.1599
vn 0.6739 0.6281 -0.3891
vn 0.0000 0.9475 -0.3197
vn 0.2775 0.9474 -0.1597
vn 0.2773 0.9475 -0.1595
vn 0.2776 0.9473 -0.1598
vn -0.5409 -0.7810 -0.3123
vn 0.0000 -0.7810 -0.6245
vn 0.5409 -0.7810 -0.3123
vn 0.7715 0.4543 -0.4454
vn 0.0000 0.4543 -0.8909
vn -0.7715 0.4543 -0.4454
vn -0.8395 -0.2454 -0.4847
vn -0.6933 0.5992 -0.4003
vn -0.4500 -0.8544 -0.2598
vn -0.8395 0.2454 -0.4847
vn 0.0000 -0.2454 -0.9694
vn 0.0000 0.5992 -0.8006
vn 0.0000 -0.8544 -0.5196
vn 0.0000 0.2454 -0.9694
vn 0.8395 -0.2454 -0.4847
vn 0.6933 0.5992 -0.4003
vn 0.4485 -0.8561 -0.2569
vn 0.4500 -0.8545 -0.2595
vn 0.4481 -0.8565 -0.2561
vn 0.8395 0.2454 -0.4847
vn -0.8634 0.0779 0.4985
vn 0.0000 0.0779 0.9970
vn 0.8634 0.0779 0.4985
vn 0.8660 -0.0000 0.5000
vn 0.0000 0.0000 1.0000
vn -0.8660 -0.0000 0.5000
vn 0.7961 0.3938 0.4596
vn 0.7960 0.3938 0.4596
vn 0.0000 0.3938 0.9192
vn -0.7961 0.3938 0.4596
vn 0.7884 -0.4138 0.4552
vn 0.0000 -0.4138 0.9104
vn -0.7884 -0.4138 0.4552
vn 0.7756 0.4450 0.4478
vn 0.0000 0.4450 0.8955
vn -0.7756 0.4450 0.4478
vn 0.3314 0.9239 0.1913
vn 0.0000 0.9239 0.3827
vn -0.3314 0.9239 0.1913
vn -0.3595 0.9098 0.2075
vn 0.0000 0.9098 0.4151
vn 0.3595 0.9098 0.2075
vn 0.0000 0.6281 0.7781
vn -0.6739 0.6281 0.3891
vn -0.2770 0.9475 0.1599
vn 0.6739 0.6281 0.3891
vn 0.0000 0.9475 0.3197
vn 0.2775 0.9474 0.1597
vn 0.2773 0.9475 0.1595
vn 0.2772 0.9475 0.1594
vn -0.5409 -0.7810 0.3123
vn 0.0000 -0.7810 0.6245
vn 0.5409 -0.7810 0.3123
vn 0.7715 0.4543 0.4454
vn 0.0000 0.4543 0.8909
vn -0.7715 0.4543 0.4454
vn -0.8395 -0.2454 0.4847
vn -0.6933 0.5992 0.4003
vn -0.4500 -0.8544 0.2598
vn 0.0000 -0.2454 0.9694
vn 0.0000 0.5992 0.8006
vn 0.0000 -0.8544 0.5196
vn 0.0000 0.2454 0.9694
vn 0.8395 -0.2454 0.4847
vn 0.6933 0.5992 0.4003
vn 0.4485 -0.8561 0.2569
vn 0.4500 -0.8545 0.2595
vn 0.4500 -0.8544 0.2598
vn 0.1729 0.9799 0.0997
vn 0.1731 0.9798 0.0999
vn 0.0000 0.9798 0.1999
vn -0.1731 0.9798 0.1000
vn 0.1729 0.9799 -0.0997
vn 0.1731 0.9798 -0.0999
vn 0.1728 0.9799 -0.0997
vn 0.0000 0.9798 -0.1999
vn -0.1731 0.9798 -0.1000
vn 0.5299 0.7915 0.3047
vn 0.5285 0.7928 0.3036
vn 0.5306 0.7908 0.3052
vn 0.0000 0.7912 0.6116
vn -0.5295 0.7913 0.3057
vn 0.5299 0.7915 -0.3047
vn 0.5285 0.7928 -0.3036
vn 0.5278 0.7935 -0.3030
vn 0.0000 0.7912 -0.6116
vn -0.5295 0.7913 -0.3057
vn -0.7111 -0.5708 -0.4105
vn 0.0000 -0.5713 -0.8207
vn 0.7135 -0.5678 -0.4104
vn 0.7124 -0.5700 -0.4093
vn 0.7142 -0.5666 -0.4111
vn -0.7111 -0.5708 0.4105
vn 0.0000 -0.5713 0.8207
vn 0.7124 -0.5700 0.4093
vn 0.7135 -0.5678 0.4104
vn 0.7142 -0.5666 0.4111
vn 0.4804 -0.8320 0.2774
vn 0.4804 0.8320 0.2774
vn 0.0000 -0.8320 0.5547
vn 0.0000 0.8320 0.5547
vn -0.4804 -0.8320 0.2774
vn -0.4804 0.8320 0.2774
vn -0.4804 -0.8320 -0.2774
vn -0.4804 0.8320 -0.2774
vn 0.0000 -0.8320 -0.5547
vn 0.0000 0.8320 -0.5547
vn 0.4804 -0.8320 -0.2774
vn 0.4804 0.8320 -0.2774
vn 0.0000 -0.6830 -0.7304
vn 0.0000 -0.6333 -0.7739
vn 0.0000 -0.1256 -0.9921
vn 0.0000 0.6830 0.7304
vn -0.8395 0.2454 0.4847
vn 0.8395 0.2454 0.4847
vn 0.0000 0.6333 0.7739
vn 0.0000 1.0000 0.0000
vn -0.0011 -0.8131 -0.5822
vn -0.0011 -0.7891 -0.6143
vn -0.0011 -0.8019 -0.5974
vn 0.2772 0.9475 -0.1594
vn 0.4500 -0.8544 -0.2598
vn 0.2776 0.9473 0.1598
vn 0.4481 -0.8565 0.2561
vn 0.1728 0.9799 0.0997
vn 0.5278 0.7935 0.3030
vn 0.5306 0.7908 -0.3052
vn 0.7119 -0.5712 -0.4086
vn 0.7119 -0.5712 0.4086
s 1
f 1/1/1 2/2/1 3/3/1
f 2/4/2 4/5/2 3/6/2
f 5/7/3 6/8/3 4/9/3
f 7/10/4 8/11/4 9/12/4
f 10/13/5 9/14/5 11/15/5
f 12/16/6 11/17/6 13/18/6
f 14/19/7 15/20/7 7/10/7
f 16/21/8 7/22/8 10/13/8
f 17/23/9 10/24/9 12/16/9
f 18/25/10 19/26/10 20/27/10
f 21/28/11 18/29/11 22/30/11
f 23/31/12 22/32/12 24/33/12
f 25/34/13 26/35/13 19/26/13
f 27/36/14 25/37/14 21/28/14
f 28/38/15 21/39/15 23/31/15
f 29/40/16 30/41/16 26/35/16
f 27/36/17 31/42/17 29/43/17
f 32/44/18 27/45/18 28/38/18
f 24/33/19 16/46/19 17/23/19
f 22/30/20 14/47/20 16/21/20
f 18/25/21 33/48/21 14/19/21
f 5/49/22 34/50/22 35/51/22
f 36/52/23 37/53/23 38/54/23
f 36/55/24 39/56/24 40/57/24
f 41/58/25 42/59/25 43/60/25
f 5/7/22 44/61/22 45/62/22
f 2/2/22 46/63/22 34/64/22
f 47/65/26 37/66/26 48/67/26
f 43/68/27 49/69/27 50/70/27
f 51/71/28 49/72/29 52/73/30
f 46/63/31 36/55/31 34/64/31
f 34/50/32 38/54/32 35/51/32
f 44/61/33 38/74/33 47/65/33
f 4/9/34 30/41/34 31/75/34
f 53/76/35 4/5/35 31/42/35
f 32/44/36 3/3/36 53/77/36
f 54/78/37 55/79/37 56/80/37
f 57/81/38 58/82/38 59/83/38
f 54/78/39 42/84/39 60/85/39
f 61/86/40 55/79/40 62/87/40
f 56/88/41 63/89/41 64/90/41
f 65/91/42 66/92/42 58/93/42
f 56/88/43 49/94/43 42/95/43
f 67/96/44 63/89/44 55/97/44
f 64/98/45 68/99/45 69/100/45
f 66/101/46 70/102/46 71/103/46
f 49/104/47 69/100/48 52/105/49
f 63/106/50 72/107/50 68/99/50
f 8/11/22 73/108/22 9/12/22
f 9/14/22 73/108/22 11/15/22
f 13/18/22 11/17/22 73/108/22
f 1/109/51 74/110/51 75/111/51
f 76/112/52 74/113/52 77/114/52
f 6/115/53 78/116/53 76/117/53
f 8/118/54 79/119/54 80/120/54
f 80/121/55 81/122/55 82/123/55
f 82/124/56 12/125/56 13/126/56
f 79/119/57 33/127/57 83/128/58
f 81/122/59 83/129/59 84/130/59
f 81/131/60 17/132/60 12/125/60
f 85/133/61 19/134/61 86/135/61
f 85/136/62 87/137/62 88/138/62
f 88/139/63 23/140/63 24/141/63
f 86/135/64 26/142/64 89/143/64
f 86/144/65 90/145/65 87/137/65
f 23/140/66 90/146/66 28/147/66
f 89/143/67 30/148/67 91/149/67
f 89/150/68 92/151/68 90/145/68
f 90/146/69 32/152/69 28/147/69
f 84/153/70 24/141/70 17/132/70
f 83/129/71 88/138/71 84/130/71
f 83/128/72 20/154/72 85/133/72
f 78/155/22 93/156/22 74/113/22
f 94/157/73 95/158/73 96/159/73
f 95/160/74 97/161/74 96/162/74
f 98/163/75 41/164/75 99/165/75
f 44/166/22 78/116/22 45/167/22
f 74/110/22 46/168/22 75/111/22
f 47/169/76 100/170/76 94/171/76
f 101/172/77 99/173/77 102/174/77
f 51/175/78 101/176/79 102/177/80
f 96/162/81 46/168/81 93/178/81
f 94/157/82 93/156/82 103/179/82
f 44/166/83 94/171/83 103/180/83
f 91/149/84 6/115/84 76/117/84
f 91/181/85 77/114/85 92/151/85
f 32/152/86 77/182/86 1/109/86
f 54/183/87 104/184/87 105/185/87
f 106/186/88 57/187/88 59/188/88
f 98/189/89 54/183/89 60/190/89
f 107/191/90 105/192/90 104/193/90
f 106/194/91 108/195/91 109/196/91
f 101/197/92 104/193/92 98/198/92
f 110/199/93 106/194/93 105/192/93
f 107/200/94 69/201/94 110/202/94
f 71/203/95 108/204/95 111/205/95
f 101/206/96 69/201/97 107/200/98
f 8/118/22 80/120/22 73/108/22
f 80/121/22 82/123/22 73/108/22
f 13/126/22 73/108/22 82/124/22
f 48/207/99 112/208/100 100/170/100
f 112/209/101 95/158/101 100/210/101
f 113/211/102 39/212/102 95/160/102
f 48/67/103 114/213/104 115/214/105
f 40/215/106 114/216/106 37/53/106
f 39/56/107 116/217/107 40/57/107
f 117/218/108 102/177/109 118/219/110
f 118/220/111 99/173/111 119/221/111
f 119/222/112 41/164/112 120/223/112
f 117/224/113 50/225/114 51/71/115
f 121/226/116 43/68/116 50/70/116
f 122/227/117 41/58/117 43/60/117
f 116/217/118 120/228/118 122/227/118
f 114/216/119 122/229/119 121/226/119
f 114/213/120 117/224/121 115/214/122
f 113/211/123 120/223/123 123/230/123
f 112/209/124 119/221/124 113/231/124
f 117/218/125 112/208/126 115/232/127
f 124/233/128 125/234/128 126/235/128
f 127/236/54 126/235/54 125/234/54
f 127/236/129 128/237/129 129/238/129
f 124/239/130 126/235/130 130/240/130
f 129/238/55 130/240/55 126/235/55
f 129/238/131 128/241/131 131/242/131
f 124/243/132 130/240/132 132/244/132
f 131/242/56 132/244/56 130/240/56
f 131/242/133 128/245/133 133/246/133
f 124/247/134 132/248/134 134/249/134
f 133/250/6 134/249/6 132/248/6
f 133/250/135 128/251/135 135/252/135
f 124/253/136 134/249/136 136/254/136
f 135/252/5 136/254/5 134/249/5
f 135/252/137 128/255/137 137/256/137
f 124/257/138 136/254/138 125/234/138
f 137/256/4 125/234/4 136/254/4
f 137/256/139 128/258/139 127/236/139
f 61/86/38 138/259/38 67/260/38
f 67/96/42 139/261/42 140/262/42
f 140/263/46 139/264/46 72/107/46
f 59/265/140 66/266/140 71/267/140
f 141/268/141 71/267/141 142/269/141
f 141/268/142 143/270/142 144/271/142
f 72/272/143 138/273/143 61/274/143
f 59/188/144 141/275/144 106/186/144
f 142/276/145 71/203/145 111/205/145
f 68/277/146 61/274/146 62/278/146
f 68/277/147 144/271/147 143/270/147
f 141/275/144 105/185/144 106/186/144
f 144/279/87 54/183/87 105/185/87
f 110/202/148 68/280/149 143/281/150
f 110/202/145 142/276/145 111/205/145
f 1/1/1 75/282/1 2/2/1
f 2/4/2 5/49/2 4/5/2
f 5/7/3 45/62/3 6/8/3
f 7/10/4 15/20/4 8/11/4
f 10/13/5 7/22/5 9/14/5
f 12/16/6 10/24/6 11/17/6
f 14/19/7 33/48/7 15/20/7
f 16/21/8 14/47/8 7/22/8
f 17/23/9 16/46/9 10/24/9
f 18/25/10 25/34/10 19/26/10
f 21/28/11 25/37/11 18/29/11
f 23/31/12 21/39/12 22/32/12
f 25/34/13 29/40/13 26/35/13
f 27/36/14 29/43/14 25/37/14
f 28/38/15 27/45/15 21/39/15
f 29/40/16 31/75/16 30/41/16
f 27/36/17 53/76/17 31/42/17
f 32/44/18 53/77/18 27/45/18
f 24/33/19 22/32/19 16/46/19
f 22/30/20 18/29/20 14/47/20
f 18/25/21 20/27/21 33/48/21
f 5/49/22 2/4/22 34/50/22
f 36/52/23 40/215/23 37/53/23
f 36/55/24 97/283/24 39/56/24
f 41/58/25 60/284/25 42/59/25
f 5/7/22 35/285/22 44/61/22
f 2/2/22 75/282/22 46/63/22
f 47/65/26 38/74/26 37/66/26
f 43/68/27 42/286/27 49/69/27
f 51/71/28 50/225/151 49/72/29
f 46/63/31 97/283/31 36/55/31
f 34/50/32 36/52/32 38/54/32
f 44/61/33 35/285/33 38/74/33
f 4/9/34 6/8/34 30/41/34
f 53/76/35 3/6/35 4/5/35
f 32/44/36 1/1/36 3/3/36
f 54/78/37 62/87/37 55/79/37
f 57/81/38 65/287/38 58/82/38
f 54/78/39 56/80/39 42/84/39
f 61/86/40 67/260/40 55/79/40
f 56/88/41 55/97/41 63/89/41
f 65/91/42 145/288/42 66/92/42
f 56/88/43 64/90/43 49/94/43
f 67/96/44 140/262/44 63/89/44
f 64/98/45 63/106/45 68/99/45
f 66/101/46 145/289/46 70/102/46
f 49/104/47 64/98/152 69/100/48
f 63/106/50 140/263/50 72/107/50
f 1/109/51 77/182/51 74/110/51
f 76/112/52 78/155/52 74/113/52
f 6/115/53 45/167/53 78/116/53
f 8/118/54 15/290/54 79/119/54
f 80/121/55 79/291/55 81/122/55
f 82/124/56 81/131/56 12/125/56
f 79/119/57 15/290/57 33/127/57
f 81/122/59 79/291/59 83/129/59
f 81/131/60 84/153/60 17/132/60
f 85/133/61 20/154/61 19/134/61
f 85/136/62 86/144/62 87/137/62
f 88/139/63 87/292/63 23/140/63
f 86/135/64 19/134/64 26/142/64
f 86/144/65 89/150/65 90/145/65
f 23/140/66 87/292/66 90/146/66
f 89/143/67 26/142/67 30/148/67
f 89/150/68 91/181/68 92/151/68
f 90/146/69 92/293/69 32/152/69
f 84/153/70 88/139/70 24/141/70
f 83/129/71 85/136/71 88/138/71
f 83/128/72 33/127/72 20/154/72
f 78/155/22 103/179/22 93/156/22
f 94/157/73 100/210/73 95/158/73
f 95/160/74 39/212/74 97/161/74
f 98/163/75 60/294/75 41/164/75
f 44/166/22 103/180/22 78/116/22
f 74/110/22 93/178/22 46/168/22
f 47/169/76 48/207/76 100/170/76
f 101/172/77 98/295/77 99/173/77
f 51/175/78 52/296/153 101/176/79
f 96/162/81 97/161/81 46/168/81
f 94/157/82 96/159/82 93/156/82
f 44/166/83 47/169/83 94/171/83
f 91/149/84 30/148/84 6/115/84
f 91/181/85 76/112/85 77/114/85
f 32/152/86 92/293/86 77/182/86
f 106/186/88 109/297/88 57/187/88
f 98/189/89 104/184/89 54/183/89
f 107/191/90 110/199/90 105/192/90
f 106/194/91 111/298/91 108/195/91
f 101/197/92 107/191/92 104/193/92
f 110/199/93 111/298/93 106/194/93
f 71/203/95 70/299/95 108/204/95
f 101/206/96 52/300/154 69/201/97
f 48/207/99 115/232/155 112/208/100
f 112/209/101 113/231/101 95/158/101
f 113/211/102 123/230/102 39/212/102
f 48/67/103 37/66/104 114/213/104
f 40/215/106 116/301/106 114/216/106
f 39/56/107 123/302/107 116/217/107
f 117/218/108 51/175/156 102/177/109
f 118/220/111 102/174/111 99/173/111
f 119/222/112 99/165/112 41/164/112
f 117/224/113 121/303/157 50/225/114
f 121/226/116 122/229/116 43/68/116
f 122/227/117 120/228/117 41/58/117
f 116/217/118 123/302/118 120/228/118
f 114/216/119 116/301/119 122/229/119
f 114/213/120 121/303/158 117/224/121
f 113/211/123 119/222/123 120/223/123
f 112/209/124 118/220/124 119/221/124
f 117/218/125 118/219/159 112/208/126
f 127/236/54 129/238/54 126/235/54
f 129/238/55 131/242/55 130/240/55
f 131/242/56 133/246/56 132/244/56
f 133/250/6 135/252/6 134/249/6
f 135/252/5 137/256/5 136/254/5
f 137/256/4 127/236/4 125/234/4
f 67/96/42 138/304/42 139/261/42
f 59/265/140 58/305/140 66/266/140
f 141/268/141 59/265/141 71/267/141
f 141/268/142 142/269/142 143/270/142
f 72/272/143 139/306/143 138/273/143
f 68/277/146 72/272/146 61/274/146
f 68/277/147 62/278/147 144/271/147
f 141/275/144 144/279/144 105/185/144
f 144/279/87 62/307/87 54/183/87
f 110/202/94 69/201/94 68/280/94
f 110/202/145 143/281/145 142/276/145
