# Blender v2.82 (sub 7) OBJ File: ''
# www.blender.org
o King
v -0.019610 1.589786 0.021462
v -0.024267 1.719343 0.021462
v -0.019610 1.589786 -0.021462
v -0.024267 1.719343 -0.021462
v 0.019343 1.589786 0.021462
v 0.024001 1.719343 0.021462
v 0.019343 1.589786 -0.021462
v 0.024001 1.719343 -0.021462
v -0.019610 1.641577 0.021462
v -0.019610 1.677164 0.021462
v -0.019610 1.677164 -0.021462
v -0.019610 1.641577 -0.021462
v 0.019343 1.677164 -0.021462
v 0.019343 1.641577 -0.021462
v 0.019343 1.677164 0.021462
v 0.019343 1.641577 0.021462
v -0.054513 1.638511 0.021462
v -0.054513 1.680230 0.021462
v -0.054513 1.680230 -0.021462
v -0.054513 1.638511 -0.021462
v 0.054247 1.680230 -0.021462
v 0.054247 1.638511 -0.021462
v 0.054247 1.680230 0.021462
v 0.054247 1.638511 0.021462
v 0.218814 0.000000 -0.379471
v 0.058049 1.038013 -0.101019
v -0.219361 0.000000 -0.379471
v -0.058597 1.038013 -0.101019
v 0.218814 0.090078 -0.379471
v -0.219361 0.090078 -0.379471
v 0.203998 0.149978 -0.353810
v -0.204546 0.149978 -0.353810
v 0.179130 0.231832 -0.310737
v -0.179678 0.231832 -0.310737
v 0.164311 0.283491 -0.285070
v -0.164859 0.283491 -0.285070
v 0.125062 0.311650 -0.217088
v -0.125610 0.311650 -0.217088
v 0.165610 0.180315 -0.287319
v -0.166158 0.180315 -0.287319
v 0.109231 1.106423 -0.189668
v -0.109779 1.106423 -0.189668
v 0.128536 1.065003 -0.223105
v 0.109049 1.038013 -0.189353
v -0.129084 1.065003 -0.223105
v -0.109597 1.038013 -0.189353
v 0.081826 0.511166 -0.142201
v -0.082374 0.511166 -0.142201
v 0.060543 1.166549 -0.105331
v -0.061083 1.166549 -0.105331
v 0.082164 1.115991 -0.142772
v -0.082701 1.115984 -0.142776
v 0.082212 1.153870 -0.142909
v -0.082805 1.153870 -0.142909
v 0.092065 1.140687 -0.159962
v -0.092638 1.140698 -0.159959
v -0.101236 1.515965 -0.174734
v 0.100552 1.515951 -0.174747
v -0.124054 1.472500 -0.214224
v 0.123332 1.472486 -0.214239
v -0.037445 1.538022 -0.064392
v 0.036917 1.538017 -0.064397
v -0.037445 1.592212 -0.064392
v 0.036917 1.592207 -0.064397
v 0.044570 1.565111 -0.077668
v -0.045117 1.565117 -0.077662
v 0.218814 -0.000000 0.379471
v 0.058049 1.038013 0.101019
v -0.219361 -0.000000 0.379471
v -0.058597 1.038013 0.101019
v 0.218814 0.090078 0.379471
v -0.219361 0.090078 0.379471
v 0.203998 0.149978 0.353810
v -0.204546 0.149978 0.353810
v 0.179130 0.231832 0.310737
v -0.179678 0.231832 0.310737
v 0.164311 0.283491 0.285070
v -0.164859 0.283491 0.285070
v 0.125062 0.311650 0.217088
v -0.125610 0.311650 0.217088
v 0.165610 0.180315 0.287319
v -0.166158 0.180315 0.287319
v 0.109231 1.106423 0.189669
v -0.109779 1.106423 0.189669
v 0.128536 1.065003 0.223105
v 0.109049 1.038013 0.189353
v -0.129084 1.065003 0.223105
v -0.109597 1.038013 0.189353
v 0.081826 0.511166 0.142201
v -0.082374 0.511166 0.142201
v 0.060543 1.166549 0.105331
v -0.061083 1.166549 0.105331
v 0.082164 1.115991 0.142772
v -0.082701 1.115984 0.142776
v 0.082212 1.153870 0.142909
v -0.082805 1.153870 0.142909
v 0.092065 1.140687 0.159962
v -0.092638 1.140698 0.159959
v -0.101236 1.515965 0.174734
v 0.100552 1.515951 0.174747
v -0.124054 1.472500 0.214224
v 0.123332 1.472486 0.214239
v -0.438449 -0.000000 -0.000000
v -0.116921 1.038013 0.000000
v 0.437901 0.000000 0.000000
v 0.116373 1.038013 0.000000
v -0.438449 0.090078 0.000000
v 0.437901 0.090078 0.000000
v -0.408818 0.149978 0.000000
v 0.408270 0.149978 0.000000
v -0.359082 0.231832 0.000000
v 0.358534 0.231832 0.000000
v -0.329444 0.283491 0.000000
v 0.328896 0.283491 0.000000
v -0.250946 0.311650 0.000000
v 0.250398 0.311650 0.000000
v 0.331494 0.180315 0.000000
v -0.332042 0.180315 0.000000
v -0.219284 1.106423 0.000000
v 0.218736 1.106423 0.000000
v -0.121445 1.166631 0.000000
v -0.218920 1.038013 0.000000
v -0.257893 1.065003 0.000000
v 0.257345 1.065003 0.000000
v 0.218372 1.038013 0.000000
v -0.164473 0.511166 0.000000
v 0.163925 0.511166 0.000000
v 0.121356 1.166549 0.000000
v -0.000274 0.000000 0.000000
v -0.164880 1.116031 0.000000
v 0.164594 1.115991 0.000000
v -0.164717 1.153965 0.000000
v 0.164721 1.153870 0.000000
v -0.184545 1.140736 0.000000
v 0.184419 1.140687 0.000000
v -0.201393 1.516048 0.000000
v 0.201447 1.515944 0.000000
v 0.247028 1.472479 0.000000
v -0.246843 1.472615 0.000000
v -0.037445 1.538022 0.064392
v 0.036917 1.538017 0.064397
v -0.074355 1.538053 0.000000
v 0.074098 1.538015 0.000000
v -0.037445 1.592212 0.064392
v 0.036917 1.592207 0.064397
v -0.074355 1.592242 0.000000
v 0.074098 1.592204 0.000000
v 0.089414 1.565107 0.000000
v 0.044570 1.565111 0.077668
v -0.045117 1.565117 0.077662
v -0.089633 1.565153 0.000000
v -0.000128 1.592223 0.000000
vt 0.302541 0.719255
vt 0.377997 0.658177
vt 0.370374 0.726791
vt 0.233506 0.719206
vt 0.165621 0.789300
vt 0.165664 0.726652
vt 0.310017 0.865509
vt 0.370330 0.789440
vt 0.377860 0.858064
vt 0.302488 0.796884
vt 0.233452 0.796836
vt 0.427565 0.789481
vt 0.510905 0.726888
vt 0.510862 0.789537
vt 0.427608 0.726831
vt 0.510815 0.858573
vt 0.108430 0.726612
vt 0.170634 0.670519
vt 0.025091 0.789203
vt 0.025134 0.726555
vt 0.108387 0.789259
vt 0.510953 0.657853
vt 0.039657 0.710469
vt 0.103537 0.670473
vt 0.170514 0.845438
vt 0.103370 0.914427
vt 0.103417 0.845392
vt 0.170683 0.601485
vt 0.103586 0.601437
vt 0.165791 0.545346
vt 0.108557 0.545306
vt 0.034651 0.864614
vt 0.039622 0.805189
vt 0.239400 0.651298
vt 0.234430 0.710722
vt 0.234395 0.805442
vt 0.108263 0.970565
vt 0.170467 0.914471
vt 0.165497 0.970604
vt 0.466588 0.341382
vt 0.560610 0.609455
vt 0.369476 0.437368
vt 0.466663 0.341238
vt 0.560809 0.609221
vt 0.369570 0.437243
vt 0.466663 0.341238
vt 0.560808 0.609221
vt 0.369570 0.437243
vt 0.336677 0.039794
vt 0.107781 0.327675
vt 0.077580 0.295991
vt 0.336676 0.039795
vt 0.107781 0.327675
vt 0.077579 0.295991
vt 0.336745 0.039830
vt 0.107781 0.327675
vt 0.077598 0.295973
vt 0.366878 0.071479
vt 0.138390 0.341934
vt 0.366878 0.071479
vt 0.138389 0.341934
vt 0.366928 0.071532
vt 0.138378 0.341949
vt 0.381771 0.151214
vt 0.196571 0.373005
vt 0.185593 0.345195
vt 0.381770 0.151215
vt 0.196571 0.373005
vt 0.185592 0.345196
vt 0.381786 0.151289
vt 0.196536 0.373049
vt 0.185570 0.345229
vt 0.419316 0.192169
vt 0.224674 0.384631
vt 0.408738 0.163215
vt 0.224674 0.384631
vt 0.419309 0.192266
vt 0.224629 0.384688
vt 0.420778 0.240999
vt 0.272553 0.387564
vt 0.419316 0.192169
vt 0.272553 0.387564
vt 0.272498 0.387641
vt 0.380001 0.103127
vt 0.379966 0.103063
vt 0.689557 0.542270
vt 0.629783 0.541018
vt 0.722001 0.576088
vt 0.563236 0.696705
vt 0.715569 0.546078
vt 0.715365 0.546361
vt 0.592256 0.704406
vt 0.563002 0.696957
vt 0.739605 0.653811
vt 0.641567 0.723634
vt 0.739162 0.627171
vt 0.689556 0.542271
vt 0.629783 0.541019
vt 0.689359 0.542542
vt 0.629598 0.541267
vt 0.722000 0.576090
vt 0.563235 0.696706
vt 0.715568 0.546079
vt 0.739867 0.653509
vt 0.641838 0.723344
vt 0.739413 0.626859
vt 0.739305 0.627166
vt 0.667944 0.724606
vt 0.641799 0.723364
vt 0.560046 0.670356
vt 0.560269 0.670110
vt 0.560268 0.670111
vt 0.079900 0.034417
vt 0.080020 0.034350
vt 0.624551 0.705149
vt 0.592497 0.704142
vt 0.722036 0.608754
vt 0.592498 0.704142
vt 0.721804 0.609053
vt 0.721785 0.576380
vt 0.737885 0.613753
vt 0.628745 0.721562
vt 0.738004 0.613531
vt 0.628785 0.721524
vt 0.737759 0.613829
vt 0.628518 0.721804
vt 0.624302 0.705424
vt 0.624550 0.705151
vt 0.722037 0.608908
vt 0.885324 0.731778
vt 0.772350 0.883297
vt 0.739164 0.875988
vt 0.739705 0.875558
vt 0.892188 0.764911
vt 0.772867 0.882892
vt 0.739312 0.875922
vt 0.891807 0.765309
vt 0.772466 0.883263
vt 0.667672 0.724909
vt 0.667949 0.724623
vt 0.892199 0.841786
vt 0.848228 0.885264
vt 0.891791 0.842158
vt 0.847812 0.885626
vt 0.891564 0.765667
vt 0.847806 0.885562
vt 0.895205 0.525133
vt 0.838429 0.368418
vt 0.837736 0.510244
vt 0.891382 0.029328
vt 0.826965 0.216928
vt 0.892853 0.215356
vt 0.894006 0.366856
vt 0.958758 0.215934
vt 0.949595 0.367581
vt 0.952434 0.509379
vt 0.823173 0.048124
vt 0.678596 0.135367
vt 0.701532 0.302869
vt 0.715481 0.438857
vt 0.629598 0.541267
vt 0.466588 0.341382
vt 0.560809 0.609221
vt 0.466663 0.341238
vt 0.369570 0.437243
vt 0.560808 0.609221
vt 0.369570 0.437243
vt 0.107781 0.327675
vt 0.077580 0.295991
vt 0.107781 0.327675
vt 0.336676 0.039795
vt 0.077579 0.295991
vt 0.336745 0.039830
vt 0.138390 0.341934
vt 0.138389 0.341934
vt 0.366878 0.071479
vt 0.366928 0.071532
vt 0.185593 0.345195
vt 0.408738 0.163214
vt 0.196571 0.373005
vt 0.381770 0.151215
vt 0.185592 0.345196
vt 0.381786 0.151289
vt 0.196571 0.373005
vt 0.224674 0.384631
vt 0.408738 0.163215
vt 0.419309 0.192266
vt 0.408744 0.163301
vt 0.272553 0.387564
vt 0.224674 0.384631
vt 0.272553 0.387564
vt 0.419316 0.192169
vt 0.420751 0.241106
vt 0.380001 0.103127
vt 0.379966 0.103063
vt 0.379966 0.103062
vt 0.689557 0.542270
vt 0.629783 0.541018
vt 0.563236 0.696705
vt 0.722001 0.576088
vt 0.715569 0.546078
vt 0.715365 0.546361
vt 0.721785 0.576380
vt 0.739605 0.653811
vt 0.739162 0.627171
vt 0.689359 0.542542
vt 0.592497 0.704142
vt 0.641838 0.723344
vt 0.739867 0.653509
vt 0.739413 0.626859
vt 0.667944 0.724606
vt 0.739812 0.653711
vt 0.563235 0.696706
vt 0.420778 0.241000
vt 0.624551 0.705149
vt 0.592498 0.704142
vt 0.722036 0.608754
vt 0.721804 0.609053
vt 0.641799 0.723364
vt 0.738004 0.613531
vt 0.737759 0.613829
vt 0.628785 0.721524
vt 0.772350 0.883297
vt 0.739164 0.875988
vt 0.739705 0.875558
vt 0.892188 0.764911
vt 0.885988 0.730915
vt 0.891807 0.765309
vt 0.885624 0.731311
vt 0.667949 0.724623
vt 0.772867 0.882892
vt 0.892199 0.841786
vt 0.891791 0.842158
vt 0.847806 0.885562
vt 0.838429 0.368418
vt 0.894006 0.366856
vt 0.826965 0.216928
vt 0.892853 0.215356
vt 0.958758 0.215934
vt 0.949595 0.367581
vt 0.959888 0.047096
vt 0.310164 0.650641
vt 0.427518 0.858516
vt 0.427656 0.657796
vt 0.034764 0.651113
vt 0.239288 0.864797
vt 0.408744 0.163301
vt 0.420778 0.241000
vt 0.420751 0.241106
vt 0.885988 0.730915
vt 0.885624 0.731311
vt 0.891739 0.842213
vt 0.560269 0.670110
vt 0.560268 0.670111
vt 0.624550 0.705151
vt 0.628745 0.721562
vt 0.848228 0.885264
vn -0.9940 -0.1098 0.0000
vn 0.0000 -0.0000 -1.0000
vn 0.9940 -0.1098 0.0000
vn 0.0000 -0.0000 1.0000
vn 0.0000 1.0000 0.0000
vn 1.0000 0.0000 0.0000
vn -1.0000 0.0000 0.0000
vn 0.0875 -0.9962 0.0000
vn -0.0875 -0.9962 0.0000
vn 0.0875 0.9962 0.0000
vn -0.0875 0.9962 0.0000
vn 0.8634 0.0779 -0.4985
vn 0.0000 0.0779 -0.9970
vn -0.8634 0.0779 -0.4985
vn -0.8660 0.0000 -0.5000
vn 0.8660 0.0000 -0.5000
vn -0.7961 0.3938 -0.4596
vn -0.0000 0.3938 -0.9192
vn 0.7961 0.3938 -0.4596
vn -0.7884 -0.4138 -0.4552
vn 0.0000 -0.4138 -0.9104
vn 0.7884 -0.4138 -0.4552
vn -0.7756 0.4450 -0.4478
vn 0.0000 0.4450 -0.8956
vn 0.7756 0.4450 -0.4478
vn -0.3314 0.9239 -0.1913
vn 0.0000 0.9239 -0.3827
vn 0.3314 0.9239 -0.1913
vn 0.3595 0.9098 -0.2075
vn 0.0000 0.9098 -0.4151
vn -0.3595 0.9098 -0.2075
vn 0.0000 -1.0000 0.0000
vn 0.0000 0.6281 -0.7781
vn 0.6739 0.6281 -0.3891
vn 0.2770 0.9475 -0.1599
vn -0.6739 0.6281 -0.3891
vn -0.0000 0.9475 -0.3197
vn -0.2772 0.9475 -0.1595
vn 0.5409 -0.7810 -0.3123
vn 0.0000 -0.7810 -0.6245
vn -0.5409 -0.7810 -0.3123
vn -0.8108 0.3514 -0.4681
vn 0.0000 0.3514 -0.9362
vn 0.8108 0.3514 -0.4681
vn -0.1730 0.9798 -0.0999
vn 0.0000 0.9798 -0.1998
vn 0.1732 0.9798 -0.1000
vn -0.5305 0.7909 -0.3050
vn 0.0000 0.7912 -0.6116
vn 0.5295 0.7913 -0.3057
vn 0.7111 -0.5708 -0.4105
vn 0.0000 -0.5713 -0.8207
vn -0.7134 -0.5679 -0.4105
vn -0.6423 0.6720 -0.3685
vn -0.0000 0.6725 -0.7401
vn 0.6411 0.6723 -0.3701
vn 0.8159 -0.3352 -0.4711
vn 0.0000 -0.3354 -0.9421
vn -0.8175 -0.3350 -0.4684
vn 0.0001 0.9806 -0.1960
vn 0.1699 0.9806 -0.0981
vn -0.1699 0.9806 -0.0978
vn 0.7778 0.4396 -0.4491
vn -0.7792 0.4395 -0.4469
vn -0.0000 0.4398 -0.8981
vn -0.0001 -0.4399 -0.8981
vn -0.7794 -0.4394 -0.4466
vn 0.7778 -0.4397 -0.4491
vn 0.0003 1.0000 -0.0003
vn 0.0001 1.0000 -0.0002
vn 0.0003 1.0000 -0.0001
vn 0.8634 0.0779 0.4985
vn 0.0000 0.0779 0.9970
vn -0.8634 0.0779 0.4985
vn -0.8660 0.0000 0.5000
vn 0.8660 0.0000 0.5000
vn -0.7961 0.3938 0.4596
vn -0.0000 0.3938 0.9192
vn 0.7961 0.3938 0.4596
vn -0.7884 -0.4138 0.4552
vn 0.0000 -0.4138 0.9104
vn 0.7884 -0.4138 0.4552
vn -0.7756 0.4450 0.4478
vn 0.0000 0.4450 0.8956
vn 0.7756 0.4450 0.4478
vn -0.3314 0.9239 0.1913
vn 0.0000 0.9239 0.3827
vn 0.3314 0.9239 0.1913
vn 0.3595 0.9098 0.2075
vn 0.0000 0.9098 0.4151
vn -0.3595 0.9098 0.2075
vn 0.0000 0.6281 0.7781
vn 0.6739 0.6281 0.3891
vn 0.2770 0.9475 0.1599
vn -0.6739 0.6281 0.3891
vn -0.0000 0.9475 0.3197
vn -0.2773 0.9474 0.1597
vn 0.5409 -0.7810 0.3123
vn 0.0000 -0.7810 0.6245
vn -0.5409 -0.7810 0.3123
vn -0.8108 0.3514 0.4681
vn 0.0000 0.3514 0.9362
vn 0.8108 0.3514 0.4681
vn -0.1730 0.9798 0.0999
vn 0.0000 0.9798 0.1998
vn 0.1732 0.9798 0.1000
vn -0.5288 0.7926 0.3036
vn -0.0000 0.7914 0.6113
vn 0.5295 0.7913 0.3057
vn 0.7111 -0.5708 0.4105
vn -0.0000 -0.5709 0.8210
vn -0.7134 -0.5679 0.4105
vn -0.6423 0.6720 0.3685
vn -0.0000 0.6725 0.7401
vn 0.6411 0.6723 0.3701
vn 0.8159 -0.3352 0.4711
vn 0.0000 -0.3354 0.9421
vn -0.8176 -0.3351 0.4683
vn 0.0001 0.9806 0.1961
vn 0.1699 0.9806 0.0981
vn -0.1699 0.9806 0.0978
vn 0.7778 0.4396 0.4491
vn -0.7792 0.4395 0.4469
vn -0.0000 0.4398 0.8981
vn -0.0001 -0.4399 0.8981
vn -0.7794 -0.4394 0.4466
vn 0.7778 -0.4397 0.4491
vn 0.0003 1.0000 0.0003
vn 0.0001 1.0000 0.0002
vn 0.0003 1.0000 0.0001
vn -0.2773 0.9474 -0.1597
vn -0.0000 0.9798 -0.1999
vn -0.5288 0.7926 -0.3036
vn -0.0000 0.7914 -0.6113
vn -0.0000 -0.5709 -0.8210
vn -0.7121 -0.5707 -0.4090
vn -0.6423 0.6721 -0.3685
vn -0.0001 -0.3353 -0.9421
vn -0.8176 -0.3351 -0.4683
vn 0.0001 0.9806 -0.1961
vn -0.2772 0.9475 0.1595
vn -0.0000 0.9798 0.1999
vn -0.5305 0.7909 0.3050
vn 0.0000 0.7912 0.6116
vn 0.0000 -0.5713 0.8207
vn -0.7121 -0.5707 0.4090
vn -0.6423 0.6721 0.3685
vn -0.0001 -0.3353 0.9421
vn -0.8175 -0.3350 0.4684
s off
f 2/1/1 11/2/1 10/3/1
f 4/4/2 13/5/2 11/6/2
f 8/7/3 15/8/3 13/9/3
f 6/10/4 10/3/4 15/8/4
f 4/4/5 6/10/5 8/11/5
f 16/12/4 1/13/4 5/14/4
f 15/8/4 9/15/4 16/12/4
f 7/16/6 16/12/6 5/14/6
f 12/17/2 19/18/2 11/6/2
f 12/17/2 7/19/2 3/20/2
f 11/6/2 14/21/2 12/17/2
f 9/15/7 3/22/7 1/13/7
f 9/23/8 20/24/8 12/17/8
f 21/25/6 24/26/6 22/27/6
f 18/28/7 20/24/7 17/29/7
f 10/30/4 17/29/4 9/31/4
f 14/21/9 24/32/9 16/33/9
f 11/6/10 18/34/10 10/35/10
f 15/36/11 21/25/11 13/5/11
f 16/37/4 23/38/4 15/39/4
f 13/5/2 22/27/2 14/21/2
f 47/40/12 106/41/12 127/42/12
f 48/43/13 26/44/13 47/45/13
f 126/46/14 28/47/14 48/48/14
f 103/49/15 30/50/15 27/51/15
f 27/52/2 29/53/2 25/54/2
f 25/55/16 108/56/16 105/57/16
f 107/58/17 32/59/17 30/50/17
f 30/60/18 31/61/18 29/53/18
f 29/62/19 110/63/19 108/56/19
f 118/64/20 34/65/20 40/66/20
f 40/67/21 33/68/21 39/69/21
f 39/70/22 112/71/22 117/72/22
f 34/65/23 113/73/23 36/74/23
f 34/75/24 35/76/24 33/68/24
f 112/71/25 35/77/25 114/78/25
f 36/74/26 115/79/26 38/80/26
f 36/81/27 37/82/27 35/76/27
f 35/77/28 116/83/28 114/78/28
f 31/84/29 117/72/29 110/63/29
f 32/85/30 39/69/30 31/61/30
f 32/59/31 118/64/31 40/66/31
f 46/86/32 26/44/32 28/87/32
f 42/88/33 43/89/33 45/90/33
f 43/91/34 120/92/34 124/93/34
f 49/94/35 133/95/35 53/96/35
f 122/97/32 28/47/32 104/98/32
f 44/99/32 106/41/32 26/100/32
f 119/101/36 45/102/36 123/103/36
f 50/104/37 53/105/37 54/106/37
f 132/107/38 50/108/38 54/109/38
f 43/91/39 125/110/39 44/99/39
f 46/86/40 43/89/40 44/111/40
f 122/97/41 45/102/41 46/112/41
f 115/79/42 48/48/42 38/80/42
f 37/82/43 48/43/43 47/45/43
f 116/83/44 47/40/44 127/42/44
f 103/49/32 27/51/32 129/113/32
f 27/52/32 25/54/32 129/113/32
f 105/57/32 129/114/32 25/55/32
f 119/101/45 52/115/45 42/116/45
f 52/117/46 41/118/46 42/88/46
f 51/119/47 120/92/47 41/120/47
f 134/121/48 54/109/48 56/122/48
f 56/123/49 53/105/49 55/124/49
f 55/125/50 133/95/50 135/126/50
f 51/119/51 135/126/51 131/127/51
f 52/117/52 55/124/52 51/128/52
f 134/121/53 52/115/53 130/129/53
f 139/130/54 57/131/54 59/132/54
f 60/133/55 57/134/55 58/135/55
f 138/136/56 58/137/56 137/138/56
f 49/94/57 138/136/57 128/139/57
f 50/104/58 60/133/58 49/140/58
f 50/108/59 139/130/59 59/132/59
f 58/135/60 61/141/60 62/142/60
f 137/138/61 62/143/61 143/144/61
f 136/145/62 61/146/62 57/131/62
f 148/147/63 64/148/63 147/149/63
f 151/150/64 63/151/64 66/152/64
f 65/153/65 63/151/65 64/148/65
f 61/154/66 65/153/66 62/155/66
f 61/154/67 151/150/67 66/152/67
f 62/155/68 148/147/68 143/156/68
f 63/151/69 146/157/69 152/158/69
f 64/148/70 63/151/70 152/159/70
f 147/149/71 64/148/71 152/160/71
f 127/42/72 68/161/72 89/162/72
f 68/163/73 90/164/73 89/165/73
f 70/166/74 126/46/74 90/167/74
f 72/168/75 103/49/75 69/169/75
f 71/170/4 69/171/4 67/172/4
f 108/56/76 67/173/76 105/57/76
f 74/174/77 107/58/77 72/168/77
f 73/175/78 72/176/78 71/170/78
f 110/63/79 71/177/79 108/56/79
f 82/178/80 111/179/80 118/64/80
f 75/180/81 82/181/81 81/182/81
f 112/71/82 81/183/82 117/72/82
f 76/184/83 113/73/83 111/179/83
f 77/185/84 76/186/84 75/180/84
f 112/71/85 77/187/85 75/188/85
f 80/189/86 113/73/86 78/190/86
f 79/191/87 78/192/87 77/185/87
f 114/78/88 79/193/88 77/187/88
f 117/72/89 73/194/89 110/63/89
f 81/182/90 74/195/90 73/175/90
f 82/178/91 109/196/91 74/174/91
f 68/163/32 88/197/32 70/198/32
f 85/199/92 84/200/92 87/201/92
f 85/202/93 120/92/93 83/203/93
f 133/95/94 91/204/94 95/205/94
f 70/166/32 122/97/32 104/98/32
f 106/41/32 86/206/32 68/161/32
f 123/103/95 84/207/95 119/101/95
f 95/208/96 92/209/96 96/210/96
f 132/107/97 92/211/97 121/212/97
f 125/110/98 85/202/98 86/206/98
f 88/197/99 85/199/99 87/201/99
f 122/97/100 87/213/100 123/103/100
f 90/167/101 115/79/101 80/189/101
f 89/165/102 80/214/102 79/191/102
f 127/42/103 79/193/103 116/83/103
f 103/49/32 129/113/32 69/169/32
f 69/171/32 129/113/32 67/172/32
f 105/57/32 67/173/32 129/114/32
f 119/101/104 94/215/104 130/129/104
f 83/216/105 94/217/105 84/200/105
f 120/92/106 93/218/106 83/203/106
f 134/121/107 96/219/107 132/107/107
f 98/220/108 95/208/108 96/210/108
f 97/221/109 133/95/109 95/205/109
f 93/218/110 135/126/110 97/221/110
f 94/217/111 97/222/111 98/220/111
f 94/215/112 134/121/112 130/129/112
f 99/223/113 139/130/113 101/224/113
f 102/225/114 99/226/114 101/227/114
f 138/136/115 100/228/115 102/229/115
f 138/136/116 91/204/116 128/139/116
f 102/225/117 92/209/117 91/230/117
f 92/211/118 139/130/118 121/212/118
f 100/231/119 140/232/119 99/226/119
f 137/138/120 141/233/120 100/228/120
f 140/234/121 136/145/121 99/223/121
f 148/147/122 145/235/122 149/236/122
f 144/237/123 151/150/123 150/238/123
f 149/236/124 144/237/124 150/238/124
f 149/236/125 140/239/125 141/240/125
f 140/239/126 151/150/126 142/241/126
f 148/147/127 141/240/127 143/156/127
f 144/237/128 152/158/128 146/157/128
f 145/235/129 152/159/129 144/237/129
f 147/149/130 152/160/130 145/235/130
f 2/1/1 4/242/1 11/2/1
f 4/4/2 8/11/2 13/5/2
f 8/7/3 6/10/3 15/8/3
f 6/10/4 2/1/4 10/3/4
f 4/4/5 2/1/5 6/10/5
f 16/12/4 9/15/4 1/13/4
f 15/8/4 10/3/4 9/15/4
f 7/16/6 14/243/6 16/12/6
f 12/17/2 20/24/2 19/18/2
f 12/17/2 14/21/2 7/19/2
f 11/6/2 13/5/2 14/21/2
f 9/15/7 12/244/7 3/22/7
f 9/23/8 17/245/8 20/24/8
f 21/25/6 23/38/6 24/26/6
f 18/28/7 19/18/7 20/24/7
f 10/30/4 18/28/4 17/29/4
f 14/21/9 22/27/9 24/32/9
f 11/6/10 19/18/10 18/34/10
f 15/36/11 23/246/11 21/25/11
f 16/37/4 24/26/4 23/38/4
f 13/5/2 21/25/2 22/27/2
f 47/40/12 26/100/12 106/41/12
f 48/43/13 28/87/13 26/44/13
f 126/46/14 104/98/14 28/47/14
f 103/49/15 107/58/15 30/50/15
f 27/52/2 30/60/2 29/53/2
f 25/55/16 29/62/16 108/56/16
f 107/58/17 109/196/17 32/59/17
f 30/60/18 32/85/18 31/61/18
f 29/62/19 31/84/19 110/63/19
f 118/64/20 111/179/20 34/65/20
f 40/67/21 34/75/21 33/68/21
f 39/70/22 33/247/22 112/71/22
f 34/65/23 111/179/23 113/73/23
f 34/75/24 36/81/24 35/76/24
f 112/71/25 33/247/25 35/77/25
f 36/74/26 113/73/26 115/79/26
f 36/81/27 38/248/27 37/82/27
f 35/77/28 37/249/28 116/83/28
f 31/84/29 39/70/29 117/72/29
f 32/85/30 40/67/30 39/69/30
f 32/59/31 109/196/31 118/64/31
f 46/86/32 44/111/32 26/44/32
f 42/88/33 41/118/33 43/89/33
f 43/91/34 41/120/34 120/92/34
f 49/94/35 128/139/35 133/95/35
f 122/97/32 46/112/32 28/47/32
f 44/99/32 125/110/32 106/41/32
f 119/101/36 42/116/36 45/102/36
f 50/104/37 49/140/37 53/105/37
f 132/107/131 121/212/131 50/108/131
f 43/91/39 124/93/39 125/110/39
f 46/86/40 45/90/40 43/89/40
f 122/97/41 123/103/41 45/102/41
f 115/79/42 126/46/42 48/48/42
f 37/82/43 38/248/43 48/43/43
f 116/83/44 37/249/44 47/40/44
f 119/101/45 130/129/45 52/115/45
f 52/117/132 51/128/132 41/118/132
f 51/119/47 131/127/47 120/92/47
f 134/121/133 132/107/133 54/109/133
f 56/123/134 54/106/134 53/105/134
f 55/125/50 53/96/50 133/95/50
f 51/119/51 55/125/51 135/126/51
f 52/117/135 56/123/135 55/124/135
f 134/121/136 56/122/136 52/115/136
f 139/130/137 136/145/137 57/131/137
f 60/133/55 59/250/55 57/134/55
f 138/136/56 60/251/56 58/137/56
f 49/94/57 60/251/57 138/136/57
f 50/104/138 59/250/138 60/133/138
f 50/108/139 121/212/139 139/130/139
f 58/135/140 57/134/140 61/141/140
f 137/138/61 58/137/61 62/143/61
f 136/145/62 142/252/62 61/146/62
f 148/147/63 65/153/63 64/148/63
f 151/150/64 146/157/64 63/151/64
f 65/153/65 66/152/65 63/151/65
f 61/154/66 66/152/66 65/153/66
f 61/154/67 142/241/67 151/150/67
f 62/155/68 65/153/68 148/147/68
f 127/42/72 106/41/72 68/161/72
f 68/163/73 70/198/73 90/164/73
f 70/166/74 104/98/74 126/46/74
f 72/168/75 107/58/75 103/49/75
f 71/170/4 72/176/4 69/171/4
f 108/56/76 71/177/76 67/173/76
f 74/174/77 109/196/77 107/58/77
f 73/175/78 74/195/78 72/176/78
f 110/63/79 73/194/79 71/177/79
f 82/178/80 76/184/80 111/179/80
f 75/180/81 76/186/81 82/181/81
f 112/71/82 75/188/82 81/183/82
f 76/184/83 78/190/83 113/73/83
f 77/185/84 78/192/84 76/186/84
f 112/71/85 114/78/85 77/187/85
f 80/189/86 115/79/86 113/73/86
f 79/191/87 80/214/87 78/192/87
f 114/78/88 116/83/88 79/193/88
f 117/72/89 81/183/89 73/194/89
f 81/182/90 82/181/90 74/195/90
f 82/178/91 118/64/91 109/196/91
f 68/163/32 86/253/32 88/197/32
f 85/199/92 83/216/92 84/200/92
f 85/202/93 124/93/93 120/92/93
f 133/95/94 128/139/94 91/204/94
f 70/166/32 88/254/32 122/97/32
f 106/41/32 125/110/32 86/206/32
f 123/103/95 87/213/95 84/207/95
f 95/208/96 91/230/96 92/209/96
f 132/107/141 96/219/141 92/211/141
f 125/110/98 124/93/98 85/202/98
f 88/197/99 86/253/99 85/199/99
f 122/97/100 88/254/100 87/213/100
f 90/167/101 126/46/101 115/79/101
f 89/165/102 90/164/102 80/214/102
f 127/42/103 89/162/103 79/193/103
f 119/101/104 84/207/104 94/215/104
f 83/216/142 93/255/142 94/217/142
f 120/92/106 131/127/106 93/218/106
f 134/121/143 98/256/143 96/219/143
f 98/220/144 97/222/144 95/208/144
f 97/221/109 135/126/109 133/95/109
f 93/218/110 131/127/110 135/126/110
f 94/217/145 93/255/145 97/222/145
f 94/215/146 98/256/146 134/121/146
f 99/223/147 136/145/147 139/130/147
f 102/225/114 100/231/114 99/226/114
f 138/136/115 137/138/115 100/228/115
f 138/136/116 102/229/116 91/204/116
f 102/225/148 101/227/148 92/209/148
f 92/211/149 101/224/149 139/130/149
f 100/231/119 141/257/119 140/232/119
f 137/138/120 143/144/120 141/233/120
f 140/234/121 142/252/121 136/145/121
f 148/147/122 147/149/122 145/235/122
f 144/237/123 146/157/123 151/150/123
f 149/236/124 145/235/124 144/237/124
f 149/236/125 150/238/125 140/239/125
f 140/239/126 150/238/126 151/150/126
f 148/147/127 149/236/127 141/240/127
